<svg xmlns="http://www.w3.org/2000/svg" xmlns:xlink="http://www.w3.org/1999/xlink" width="1918.008" height="780.762" viewBox="0 0 1918.008 780.762"><defs><radialGradient id="a" cx="-2.714" cy="-0.653" r="10.215" gradientTransform="matrix(1.03, 0.141, -0.149, 1.009, 0.836, 1.234)" gradientUnits="objectBoundingBox"><stop offset="0" stop-color="#cee2ea"/><stop offset="1" stop-color="#1d80a9"/></radialGradient><radialGradient id="b" cx="-57.667" cy="-14.47" r="100.902" gradientTransform="matrix(1.647, 0.141, -0.238, 1.009, 108.882, 21.857)" xlink:href="#a"/><radialGradient id="c" cx="-3.999" cy="0.945" r="20.262" gradientTransform="matrix(0.901, 0.141, -0.13, 1.009, -0.202, 2.014)" xlink:href="#a"/><radialGradient id="d" cx="-3.508" cy="0.115" r="11.219" gradientTransform="matrix(1.308, 0.141, -0.189, 1.009, 4.755, 1.686)" xlink:href="#a"/><radialGradient id="e" cx="-1.766" cy="1.22" r="20.178" gradientTransform="matrix(0.905, 0.141, -0.131, 1.009, 0.108, 1.698)" xlink:href="#a"/><radialGradient id="f" cx="-1.691" cy="1.104" r="21.763" gradientTransform="matrix(0.544, 0.141, -0.079, 1.009, -3.176, 1.141)" xlink:href="#a"/><radialGradient id="g" cx="-5.281" cy="2.87" r="19.978" gradientTransform="matrix(0.918, 0.141, -0.133, 1.009, 0.204, 2.185)" xlink:href="#a"/><radialGradient id="h" cx="-3.176" cy="1.329" r="11.678" gradientTransform="matrix(1.125, 0.141, -0.163, 1.009, 2.437, 1.497)" xlink:href="#a"/><radialGradient id="i" cx="-0.744" cy="0.366" r="52.383" gradientTransform="matrix(0.891, 0.141, -0.129, 1.009, -0.127, 3.834)" xlink:href="#a"/><radialGradient id="j" cx="-0.888" cy="-0.203" r="28.884" gradientTransform="matrix(1.29, 0.141, -0.187, 1.009, 9.083, 3.158)" xlink:href="#a"/><radialGradient id="k" cx="1.011" cy="0.592" r="84.729" gradientTransform="matrix(0.915, 0.141, -0.132, 1.009, 1.099, 6.057)" xlink:href="#a"/><radialGradient id="l" cx="0.111" cy="0.425" r="91.243" gradientTransform="matrix(0.549, 0.141, -0.079, 1.009, -10.314, 3.844)" xlink:href="#a"/><radialGradient id="m" cx="-0.531" cy="-0.754" r="20.123" gradientTransform="matrix(0.91, 0.141, -0.132, 1.009, 0.025, 1.547)" xlink:href="#a"/><radialGradient id="n" cx="-0.709" cy="0.337" r="11.632" gradientTransform="matrix(1.142, 0.141, -0.165, 1.009, 2.13, 1.172)" xlink:href="#a"/><radialGradient id="o" cx="6.076" cy="2.888" r="150.257" gradientTransform="matrix(0.98, -0.274, 0.279, 0.961, -3.393, -5.143)" gradientUnits="objectBoundingBox"><stop offset="0" stop-color="#1d80a9"/><stop offset="1" stop-color="#cee2ea"/></radialGradient><radialGradient id="p" cx="3.118" cy="3.009" r="140.301" gradientTransform="matrix(0.619, -0.274, 0.176, 0.961, -6.547, -3.004)" xlink:href="#o"/><radialGradient id="q" cx="5.427" cy="-3.016" r="152.243" gradientTransform="matrix(0.259, -0.966, 0.96, 0.259, -24.999, -35.079)" xlink:href="#o"/><radialGradient id="r" cx="4.765" cy="-0.939" r="91.021" gradientTransform="matrix(0.402, -0.966, 1.488, 0.259, -19.933, -31.809)" xlink:href="#o"/><radialGradient id="s" cx="-13.196" cy="9.252" r="56.304" gradientTransform="matrix(1.001, -0.274, 0.285, 0.961, -2.249, -6.277)" xlink:href="#o"/><radialGradient id="t" cx="-8.661" cy="8.484" r="38.338" gradientTransform="matrix(1.038, -0.274, 0.296, 0.961, -1.688, -4.309)" xlink:href="#o"/><radialGradient id="u" cx="-21.147" cy="12.502" r="93.79" gradientTransform="matrix(0.976, -0.274, 0.278, 0.961, -3.805, -10.218)" xlink:href="#o"/><radialGradient id="v" cx="-20.449" cy="8.447" r="56.839" gradientTransform="matrix(1.538, -0.274, 0.438, 0.961, 16.906, -9.934)" xlink:href="#o"/><radialGradient id="w" cx="1.935" cy="-5.244" r="147.665" gradientTransform="matrix(0.855, -0.605, -0.649, -0.797, -35.362, -109.413)" xlink:href="#o"/><radialGradient id="x" cx="0.789" cy="-2.978" r="101.921" gradientTransform="matrix(0.728, -0.605, -0.553, -0.797, -24.761, -71.057)" xlink:href="#o"/><radialGradient id="y" cx="6.503" cy="-1.308" r="146.696" gradientTransform="matrix(1.003, 0.369, 0.401, -0.934, 18.709, -86.907)" xlink:href="#o"/><radialGradient id="z" cx="3.246" cy="-1.397" r="126.223" gradientTransform="matrix(0.658, 0.369, 0.263, -0.934, 8.773, -76.117)" xlink:href="#o"/><radialGradient id="aa" cx="-15.565" cy="5.782" r="55.583" gradientTransform="matrix(0.874, -0.605, -0.664, -0.797, -13.441, -46.729)" xlink:href="#o"/><radialGradient id="ab" cx="-9.254" cy="4.722" r="39.455" gradientTransform="matrix(0.704, -0.605, -0.535, -0.797, -11.265, -29.007)" xlink:href="#o"/><radialGradient id="ac" cx="-23.292" cy="10.19" r="91.049" gradientTransform="matrix(0.876, -0.605, -0.665, -0.797, -21.196, -73.963)" xlink:href="#o"/><radialGradient id="ad" cx="-13.37" cy="8.267" r="76.359" gradientTransform="matrix(0.581, -0.605, -0.441, -0.797, -22.263, -52.193)" xlink:href="#o"/><radialGradient id="ae" cx="0.464" cy="0.719" r="34.693" gradientTransform="matrix(0.875, -0.605, -0.664, -0.797, -8.396, -26.433)" xlink:href="#o"/><radialGradient id="af" cx="-0.151" cy="0.328" r="28.61" gradientTransform="matrix(0.566, -0.605, -0.43, -0.797, -7.292, -20.699)" xlink:href="#o"/><radialGradient id="ag" cx="3.304" cy="-1.166" r="9.503" gradientTransform="matrix(-0.998, 0.345, 0.375, 0.962, 25.176, -4.41)" xlink:href="#a"/><radialGradient id="ah" cx="6.761" cy="-2.288" r="14.735" gradientTransform="matrix(-1.205, 0.345, 0.453, 0.962, 53.674, -8.504)" xlink:href="#a"/><radialGradient id="ai" cx="5.187" cy="-0.046" r="18.644" gradientTransform="matrix(-0.971, 0.345, 0.365, 0.962, 44.34, -7.939)" xlink:href="#a"/><radialGradient id="aj" cx="5.239" cy="-0.517" r="11.271" gradientTransform="matrix(-1.534, 0.345, 0.577, 0.962, 56.205, -7.801)" xlink:href="#a"/><radialGradient id="ak" cx="2.964" cy="0.677" r="18.609" gradientTransform="matrix(-0.975, 0.345, 0.367, 0.962, 39.872, -7.162)" xlink:href="#a"/><radialGradient id="al" cx="2.628" cy="0.319" r="16.392" gradientTransform="matrix(-0.659, 0.345, 0.248, 0.962, 21.156, -4.483)" xlink:href="#a"/><radialGradient id="am" cx="6.918" cy="1.453" r="18.458" gradientTransform="matrix(-0.99, 0.345, 0.372, 0.962, 48.01, -8.542)" xlink:href="#a"/><radialGradient id="an" cx="3.948" cy="0.648" r="12.394" gradientTransform="matrix(-0.915, 0.345, 0.344, 0.962, 28.068, -5.18)" xlink:href="#a"/><radialGradient id="ao" cx="1.743" cy="0.114" r="48.063" gradientTransform="matrix(-0.961, 0.345, 0.361, 0.962, 89.911, -16.282)" xlink:href="#a"/><radialGradient id="ap" cx="1.945" cy="-0.416" r="28.954" gradientTransform="matrix(-1.508, 0.345, 0.567, 0.962, 111.58, -15.769)" xlink:href="#a"/><radialGradient id="aq" cx="-0.005" cy="0.69" r="78.333" gradientTransform="matrix(-0.983, 0.345, 0.37, 0.962, 145.856, -26.162)" xlink:href="#a"/><radialGradient id="ar" cx="0.858" cy="0.331" r="69.008" gradientTransform="matrix(-0.662, 0.345, 0.249, 0.962, 72.816, -15.464)" xlink:href="#a"/><radialGradient id="as" cx="1.305" cy="-0.851" r="18.522" gradientTransform="matrix(-0.982, 0.345, 0.369, 0.962, 37.364, -6.664)" xlink:href="#a"/><radialGradient id="at" cx="1.538" cy="0.1" r="12.298" gradientTransform="matrix(-0.928, 0.345, 0.349, 0.962, 23.94, -4.397)" xlink:href="#a"/><radialGradient id="au" cx="-4.268" cy="4.248" r="161.22" gradientTransform="matrix(-0.912, -0.073, -0.067, 1.003, 43.556, 1.599)" xlink:href="#o"/><radialGradient id="av" cx="-1.841" cy="4.955" r="188.104" gradientTransform="matrix(-0.503, -0.073, -0.037, 1.003, 23.512, 1.076)" xlink:href="#o"/><radialGradient id="aw" cx="-4.873" cy="-2.119" r="164.805" gradientTransform="matrix(-0.408, -0.891, -0.794, 0.451, 24.896, 16.137)" xlink:href="#o"/><radialGradient id="ax" cx="-3.299" cy="-0.329" r="90.27" gradientTransform="matrix(-0.584, -0.891, -1.137, 0.451, 23.114, 12.516)" xlink:href="#o"/><radialGradient id="ay" cx="15.095" cy="6.742" r="59.849" gradientTransform="matrix(-0.932, -0.073, -0.069, 1.003, -8.782, -0.379)" xlink:href="#o"/><radialGradient id="az" cx="10.634" cy="7.414" r="43.432" gradientTransform="matrix(-0.894, -0.073, -0.066, 1.003, -2.959, -0.163)" xlink:href="#o"/><radialGradient id="ba" cx="23.293" cy="8.372" r="100.214" gradientTransform="matrix(-0.911, -0.073, -0.067, 1.003, -17.082, -0.714)" xlink:href="#o"/><radialGradient id="bb" cx="19.224" cy="5.489" r="55.688" gradientTransform="matrix(-1.318, -0.073, -0.097, 1.003, -15.54, -0.532)" xlink:href="#o"/><radialGradient id="bc" cx="-2.255" cy="-4.81" r="146.003" gradientTransform="matrix(-1.008, -0.43, 0.482, -0.907, 23.676, -1.091)" xlink:href="#o"/><radialGradient id="bd" cx="-0.415" cy="-3.357" r="117.098" gradientTransform="matrix(-0.697, -0.43, 0.333, -0.907, 12.482, -0.735)" xlink:href="#o"/><radialGradient id="be" cx="-6.005" cy="-0.11" r="144.8" gradientTransform="matrix(-0.944, 0.556, -0.636, -0.837, 63.656, -23.119)" xlink:href="#o"/><radialGradient id="bf" cx="-2.509" cy="-0.392" r="106.861" gradientTransform="matrix(-0.707, 0.556, -0.477, -0.837, 32.032, -14.628)" xlink:href="#o"/><radialGradient id="bg" cx="17.268" cy="2.637" r="55.419" gradientTransform="matrix(-0.986, -0.43, 0.472, -0.907, -19.186, -2.852)" xlink:href="#o"/><radialGradient id="bh" cx="10.588" cy="2.648" r="45.794" gradientTransform="matrix(-0.674, -0.43, 0.322, -0.907, -7.892, -0.029)" xlink:href="#o"/><radialGradient id="bi" cx="26.131" cy="5.485" r="90.419" gradientTransform="matrix(-1.007, -0.43, 0.482, -0.907, -38.107, -3.665)" xlink:href="#o"/><radialGradient id="bj" cx="15.568" cy="3.639" r="65.178" gradientTransform="matrix(-0.789, -0.43, 0.378, -0.907, -17.737, -1.667)" xlink:href="#o"/><radialGradient id="bk" cx="0.585" cy="0.707" r="34.441" gradientTransform="matrix(-1.007, -0.43, 0.482, -0.907, 16.063, -0.3)" xlink:href="#o"/><radialGradient id="bl" cx="1.125" cy="0.2" r="24.712" gradientTransform="matrix(-0.771, -0.43, 0.369, -0.907, 9.609, -1.06)" xlink:href="#o"/><radialGradient id="bm" cx="-4.483" cy="-2.314" r="9.442" gradientTransform="matrix(1.003, 0.418, -0.471, 0.926, -1.406, -3.516)" xlink:href="#a"/><radialGradient id="bn" cx="-2.246" cy="-1.352" r="9.432" gradientTransform="matrix(1.007, 0.418, -0.473, 0.926, -1.005, -4.396)" xlink:href="#a"/><radialGradient id="bo" cx="-1.672" cy="-1.391" r="7.694" gradientTransform="matrix(0.69, 0.418, -0.324, 0.926, 1.016, -2.342)" xlink:href="#a"/><radialGradient id="bp" cx="-4.267" cy="-0.402" r="18.43" gradientTransform="matrix(0.978, 0.418, -0.459, 0.926, -0.327, -8.188)" xlink:href="#a"/><radialGradient id="bq" cx="-4.639" cy="-0.772" r="11.52" gradientTransform="matrix(1.625, 0.418, -0.763, 0.926, -13.544, -8.401)" xlink:href="#a"/><radialGradient id="br" cx="-2.048" cy="0.481" r="18.411" gradientTransform="matrix(0.983, 0.418, -0.461, 0.926, 0.033, -9.084)" xlink:href="#a"/><radialGradient id="bs" cx="-1.604" cy="0.103" r="15.214" gradientTransform="matrix(0.684, 0.418, -0.321, 0.926, 3.496, -5.084)" xlink:href="#a"/><radialGradient id="bt" cx="-6.19" cy="0.942" r="18.274" gradientTransform="matrix(0.998, 0.418, -0.469, 0.926, -0.094, -7.397)" xlink:href="#a"/><radialGradient id="bu" cx="-2.868" cy="0.351" r="12.965" gradientTransform="matrix(0.827, 0.418, -0.388, 0.926, 1.733, -4.693)" xlink:href="#a"/><radialGradient id="bv" cx="-0.742" cy="0.024" r="47.464" gradientTransform="matrix(0.968, 0.418, -0.455, 0.926, 0.456, -25.037)" xlink:href="#a"/><radialGradient id="bw" cx="-0.975" cy="-0.503" r="29.57" gradientTransform="matrix(1.594, 0.418, -0.748, 0.926, -37.797, -25.525)" xlink:href="#a"/><radialGradient id="bx" cx="1.003" cy="0.726" r="77.56" gradientTransform="matrix(0.99, 0.418, -0.465, 0.926, -1.081, -42.723)" xlink:href="#a"/><radialGradient id="by" cx="0.153" cy="0.305" r="64.123" gradientTransform="matrix(0.686, 0.418, -0.322, 0.926, 16.81, -24.401)" xlink:href="#a"/><radialGradient id="bz" cx="-760.543" cy="-25.151" r="230.524" gradientTransform="matrix(5.598, 0.418, -2.628, 0.926, -4357.001, -389.852)" xlink:href="#a"/><radialGradient id="ca" cx="-26.264" cy="-6.655" r="48.078" gradientTransform="matrix(0.989, 0.418, -0.464, 0.926, -4.177, -15.725)" xlink:href="#a"/><radialGradient id="cb" cx="-1274.401" cy="-41.073" r="342.051" gradientTransform="matrix(6.318, 0.418, -2.967, 0.926, -8419.97, -652.33)" xlink:href="#a"/><radialGradient id="cc" cx="-22.283" cy="-5.77" r="45.213" gradientTransform="matrix(0.873, 0.418, -0.41, 0.926, 0.136, -12.883)" xlink:href="#a"/><radialGradient id="cd" cx="-0.209" cy="-0.885" r="18.311" gradientTransform="matrix(0.99, 0.418, -0.465, 0.926, -0.737, -9.973)" xlink:href="#a"/><radialGradient id="ce" cx="-0.478" cy="-0.003" r="12.843" gradientTransform="matrix(0.838, 0.418, -0.394, 0.926, 1.861, -5.746)" xlink:href="#a"/><radialGradient id="cf" cx="-9.01" cy="-4.256" r="17.468" gradientTransform="matrix(0.971, 0.418, -0.456, 0.926, -2.086, -5.899)" xlink:href="#a"/><radialGradient id="cg" cx="4.962" cy="4.809" r="167.916" gradientTransform="matrix(0.876, 0.013, -0.011, 0.999, 4.472, -0.436)" xlink:href="#o"/><radialGradient id="ch" cx="2.698" cy="5.782" r="207.457" gradientTransform="matrix(0.466, 0.013, -0.006, 0.999, 11.852, -0.273)" xlink:href="#o"/><radialGradient id="ci" cx="6.043" cy="-1.63" r="166.025" gradientTransform="matrix(0.465, -0.851, 0.751, 0.524, -38.133, 24.362)" xlink:href="#o"/><radialGradient id="cj" cx="4.144" cy="-0.088" r="91.228" gradientTransform="matrix(0.626, -0.851, 1.01, 0.524, -29.133, 13.523)" xlink:href="#o"/><radialGradient id="ck" cx="-14.432" cy="5.64" r="62.717" gradientTransform="matrix(0.887, 0.013, -0.012, 0.999, -0.307, 0.057)" xlink:href="#o"/><radialGradient id="cl" cx="-9.991" cy="6.899" r="46.867" gradientTransform="matrix(0.821, 0.013, -0.011, 0.999, -0.357, 0.041)" xlink:href="#o"/><radialGradient id="cm" cx="-22.725" cy="6.533" r="105.053" gradientTransform="matrix(0.869, 0.013, -0.011, 0.999, -0.526, 0.079)" xlink:href="#o"/><radialGradient id="cn" cx="-17.524" cy="4.332" r="56.416" gradientTransform="matrix(1.225, 0.013, -0.016, 0.999, 1.113, 0.062)" xlink:href="#o"/><radialGradient id="co" cx="3.616" cy="-4.639" r="148.208" gradientTransform="matrix(0.994, -0.35, -0.371, -0.937, -18.057, -79.424)" xlink:href="#o"/><radialGradient id="cp" cx="1.654" cy="-3.525" r="126.461" gradientTransform="matrix(0.669, -0.35, -0.25, -0.937, -1.651, -71.662)" xlink:href="#o"/><radialGradient id="cq" cx="6.799" cy="0.362" r="146.717" gradientTransform="matrix(0.845, 0.621, 0.672, -0.788, -9.766, 10.153)" xlink:href="#o"/><radialGradient id="cr" cx="3.616" cy="-0.069" r="102.231" gradientTransform="matrix(0.708, 0.621, 0.563, -0.788, 0.441, 12.041)" xlink:href="#o"/><radialGradient id="cs" cx="-15.885" cy="1.379" r="56.443" gradientTransform="matrix(0.973, -0.35, -0.363, -0.937, -5.978, -32.014)" xlink:href="#o"/><radialGradient id="ct" cx="-9.717" cy="1.611" r="49.755" gradientTransform="matrix(0.645, -0.35, -0.241, -0.937, -3.683, -27.538)" xlink:href="#o"/><radialGradient id="cu" cx="-24.623" cy="3.613" r="91.942" gradientTransform="matrix(0.992, -0.35, -0.37, -0.937, -9.382, -48.899)" xlink:href="#o"/><radialGradient id="cv" cx="-15.06" cy="2.137" r="62.632" gradientTransform="matrix(0.869, -0.35, -0.325, -0.937, -5.71, -34.082)" xlink:href="#o"/><radialGradient id="cw" cx="0.4" cy="0.703" r="35.018" gradientTransform="matrix(0.992, -0.35, -0.371, -0.937, -4.599, -21.083)" xlink:href="#o"/><radialGradient id="cx" cx="-0.115" cy="0.159" r="23.865" gradientTransform="matrix(0.849, -0.35, -0.317, -0.937, -2.104, -15.931)" xlink:href="#o"/><radialGradient id="cy" cx="5.465" cy="3.409" r="9.416" gradientTransform="matrix(-1.006, -0.439, 0.501, -0.915, 31.73, 19.056)" xlink:href="#a"/><radialGradient id="cz" cx="7.229" cy="2.13" r="9.461" gradientTransform="matrix(-0.98, -0.439, 0.489, -0.915, 35.004, 17.299)" xlink:href="#a"/><radialGradient id="da" cx="3.228" cy="2.404" r="9.408" gradientTransform="matrix(-1.01, -0.439, 0.503, -0.915, 27.882, 16.162)" xlink:href="#a"/><radialGradient id="db" cx="2.64" cy="2.419" r="7.549" gradientTransform="matrix(-0.696, -0.439, 0.347, -0.915, 14.084, 12.627)" xlink:href="#a"/><radialGradient id="dc" cx="5.29" cy="1.499" r="18.364" gradientTransform="matrix(-0.981, -0.439, 0.489, -0.915, 51.942, 24.693)" xlink:href="#a"/><radialGradient id="dd" cx="5.769" cy="1.846" r="11.587" gradientTransform="matrix(-1.655, -0.439, 0.825, -0.915, 74.937, 22.671)" xlink:href="#a"/><radialGradient id="de" cx="3.073" cy="0.572" r="18.349" gradientTransform="matrix(-0.985, -0.439, 0.491, -0.915, 48.271, 21.973)" xlink:href="#a"/><radialGradient id="df" cx="2.597" cy="0.952" r="14.908" gradientTransform="matrix(-0.691, -0.439, 0.344, -0.915, 24.452, 16.417)" xlink:href="#a"/><radialGradient id="dg" cx="7.27" cy="0.199" r="18.215" gradientTransform="matrix(-1.001, -0.439, 0.499, -0.915, 57.624, 23.115)" xlink:href="#a"/><radialGradient id="dh" cx="3.846" cy="0.737" r="13.129" gradientTransform="matrix(-0.803, -0.439, 0.4, -0.915, 28.996, 15.758)" xlink:href="#a"/><radialGradient id="di" cx="20.549" cy="-4.463" r="10.352" gradientTransform="matrix(-2.259, 0.572, -1.593, -0.829, 60.991, 22.283)" xlink:href="#a"/><radialGradient id="dj" cx="16.172" cy="4.714" r="18.413" gradientTransform="matrix(-0.971, -0.439, 0.484, -0.915, 71.259, 35.581)" xlink:href="#a"/><radialGradient id="dk" cx="16.564" cy="6.914" r="18.413" gradientTransform="matrix(-0.971, -0.439, 0.484, -0.915, 70.967, 39.967)" xlink:href="#a"/><radialGradient id="dl" cx="8.916" cy="3.674" r="15.486" gradientTransform="matrix(-0.667, -0.439, 0.332, -0.915, 33.793, 24.724)" xlink:href="#a"/><radialGradient id="dm" cx="16.992" cy="3.828" r="11.556" gradientTransform="matrix(-1.606, -0.439, 0.801, -0.915, 99.25, 31.041)" xlink:href="#a"/><radialGradient id="dn" cx="1.742" cy="1" r="47.28" gradientTransform="matrix(-0.971, -0.439, 0.484, -0.915, 109.912, 52.621)" xlink:href="#a"/><radialGradient id="do" cx="1.985" cy="1.527" r="29.735" gradientTransform="matrix(-1.623, -0.439, 0.809, -0.915, 155.766, 45.862)" xlink:href="#a"/><radialGradient id="dp" cx="-0.002" cy="0.264" r="77.328" gradientTransform="matrix(-0.993, -0.439, 0.495, -0.915, 180.849, 83.108)" xlink:href="#a"/><radialGradient id="dq" cx="0.843" cy="0.702" r="62.855" gradientTransform="matrix(-0.693, -0.439, 0.345, -0.915, 87.484, 58.493)" xlink:href="#a"/><radialGradient id="dr" cx="17.948" cy="4.271" r="29.371" gradientTransform="matrix(-0.973, -0.439, 0.485, -0.915, 100.043, 47.126)" xlink:href="#a"/><radialGradient id="ds" cx="11.203" cy="4.033" r="24.612" gradientTransform="matrix(-0.67, -0.439, 0.334, -0.915, 49.57, 34.569)" xlink:href="#a"/><radialGradient id="dt" cx="27.344" cy="8.19" r="47.905" gradientTransform="matrix(-0.992, -0.439, 0.494, -0.915, 162.358, 78.845)" xlink:href="#a"/><radialGradient id="du" cx="16.775" cy="5.511" r="34.09" gradientTransform="matrix(-0.816, -0.439, 0.407, -0.915, 87.615, 51.021)" xlink:href="#a"/><radialGradient id="dv" cx="1.181" cy="1.895" r="18.247" gradientTransform="matrix(-0.992, -0.439, 0.495, -0.915, 44.105, 23.638)" xlink:href="#a"/><radialGradient id="dw" cx="1.462" cy="1.033" r="12.999" gradientTransform="matrix(-0.815, -0.439, 0.406, -0.915, 24.837, 15.233)" xlink:href="#a"/><radialGradient id="dx" cx="3.886" cy="2.114" r="6.756" gradientTransform="matrix(-0.805, -0.439, 0.401, -0.915, 17.715, 12.276)" xlink:href="#a"/><radialGradient id="dy" cx="4.696" cy="0.529" r="18.748" gradientTransform="matrix(-1.74, -0.422, 0.819, -0.917, 170.163, 46.188)" xlink:href="#a"/><radialGradient id="dz" cx="1.742" cy="0.983" r="47.728" gradientTransform="matrix(-0.963, -0.422, 0.453, -0.917, 159.129, 83.635)" xlink:href="#a"/><radialGradient id="ea" cx="1.976" cy="1.51" r="29.819" gradientTransform="matrix(-1.582, -0.422, 0.744, -0.917, 218.168, 68.738)" xlink:href="#a"/><radialGradient id="eb" cx="-0.003" cy="0.271" r="78.003" gradientTransform="matrix(-0.985, -0.422, 0.463, -0.917, 263.946, 134.26)" xlink:href="#a"/><radialGradient id="ec" cx="0.847" cy="0.697" r="64.166" gradientTransform="matrix(-0.685, -0.422, 0.323, -0.917, 128.072, 96.721)" xlink:href="#a"/><radialGradient id="ed" cx="1.208" cy="1.888" r="18.414" gradientTransform="matrix(-0.984, -0.422, 0.463, -0.917, 63.815, 35.693)" xlink:href="#a"/><radialGradient id="ee" cx="1.477" cy="1.011" r="12.976" gradientTransform="matrix(-0.829, -0.422, 0.39, -0.917, 36.2, 23.233)" xlink:href="#a"/><radialGradient id="ef" cx="-3.877" cy="-3.871" r="165.86" gradientTransform="matrix(-0.886, -0.032, 0.029, -0.999, 32.936, 81.062)" xlink:href="#o"/><radialGradient id="eg" cx="-1.638" cy="-4.651" r="198.308" gradientTransform="matrix(-0.486, -0.032, 0.016, -0.999, 18.185, 96.594)" xlink:href="#o"/><radialGradient id="eh" cx="-5.09" cy="2.462" r="164.054" gradientTransform="matrix(-0.488, 0.839, -0.75, -0.542, 10.515, 72.539)" xlink:href="#o"/><radialGradient id="ei" cx="-3.102" cy="1.019" r="91.585" gradientTransform="matrix(-0.635, 0.839, -0.977, -0.542, 6.873, 41.294)" xlink:href="#o"/><radialGradient id="ej" cx="15.525" cy="-4.313" r="63.528" gradientTransform="matrix(-0.875, -0.032, 0.028, -0.999, -12.056, 31.416)" xlink:href="#o"/><radialGradient id="ek" cx="11.049" cy="-5.74" r="47.895" gradientTransform="matrix(-0.798, -0.032, 0.026, -0.999, -5.302, 28.302)" xlink:href="#o"/><radialGradient id="el" cx="23.846" cy="-4.848" r="103.7" gradientTransform="matrix(-0.88, -0.032, 0.028, -0.999, -22.998, 55.61)" xlink:href="#o"/><radialGradient id="em" cx="18.328" cy="-3.004" r="56.59" gradientTransform="matrix(-1.2, -0.032, 0.039, -0.999, -18.659, 29.573)" xlink:href="#o"/><radialGradient id="en" cx="-2.714" cy="5.59" r="148.795" gradientTransform="matrix(-0.988, 0.332, 0.348, 0.943, -3.277, 0.636)" xlink:href="#o"/><radialGradient id="eo" cx="-0.721" cy="4.577" r="129.331" gradientTransform="matrix(-0.659, 0.332, 0.232, 0.943, 1.949, -0.94)" xlink:href="#o"/><radialGradient id="ep" cx="-5.744" cy="0.504" r="147.248" gradientTransform="matrix(-0.818, -0.639, -0.683, 0.773, 55.004, 19.839)" xlink:href="#o"/><radialGradient id="eq" cx="-2.647" cy="0.983" r="100.995" gradientTransform="matrix(-0.708, -0.639, -0.591, 0.773, 31.363, 11.579)" xlink:href="#o"/><radialGradient id="er" cx="16.781" cy="-0.018" r="56.719" gradientTransform="matrix(-0.968, 0.332, 0.341, 0.943, -27.677, 4.688)" xlink:href="#o"/><radialGradient id="es" cx="10.754" cy="-0.288" r="50.973" gradientTransform="matrix(-0.635, 0.332, 0.224, 0.943, -11.435, 2.124)" xlink:href="#o"/><radialGradient id="et" cx="25.486" cy="-2.077" r="92.35" gradientTransform="matrix(-0.986, 0.332, 0.347, 0.943, -50.379, 8.472)" xlink:href="#o"/><radialGradient id="eu" cx="16.203" cy="-0.737" r="61.937" gradientTransform="matrix(-0.891, 0.332, 0.314, 0.943, -27.567, 4.806)" xlink:href="#o"/><radialGradient id="ev" cx="0.604" cy="0.299" r="35.172" gradientTransform="matrix(-0.987, 0.332, 0.347, 0.943, 9.511, -1.569)" xlink:href="#o"/><radialGradient id="ew" cx="1.111" cy="0.852" r="23.631" gradientTransform="matrix(-0.871, 0.332, 0.307, 0.943, 6.869, -1.242)" xlink:href="#o"/><radialGradient id="ex" cx="-5.326" cy="2.343" r="20.384" gradientTransform="matrix(0.878, -0.013, 0.012, 1, -0.789, -0.084)" xlink:href="#o"/><radialGradient id="ey" cx="-1.999" cy="0.213" r="20.404" gradientTransform="matrix(0.876, -0.013, 0.012, 1, -0.362, -0.04)" xlink:href="#o"/><radialGradient id="ez" cx="-4.25" cy="0.153" r="20.508" gradientTransform="matrix(0.872, -0.013, 0.012, 1, -0.661, -0.07)" xlink:href="#o"/><radialGradient id="fa" cx="-1.877" cy="0.125" r="25.296" gradientTransform="matrix(0.463, -0.013, 0.006, 1, -1.35, -0.034)" xlink:href="#o"/><radialGradient id="fb" cx="-2.972" cy="2.603" r="39.59" gradientTransform="matrix(0.876, -0.013, 0.012, 1, -0.617, -0.065)" xlink:href="#o"/><radialGradient id="fc" cx="-2.555" cy="1.035" r="21.306" gradientTransform="matrix(1.231, -0.013, 0.016, 1, 0.924, -0.054)" xlink:href="#o"/><radialGradient id="fd" cx="-0.735" cy="2.576" r="39.799" gradientTransform="matrix(0.871, -0.013, 0.012, 1, -0.352, -0.035)" xlink:href="#o"/><radialGradient id="fe" cx="-1.055" cy="3.12" r="50.232" gradientTransform="matrix(0.454, -0.013, 0.006, 1, -1.27, -0.031)" xlink:href="#o"/><radialGradient id="ff" cx="-4.08" cy="4.859" r="39.972" gradientTransform="matrix(0.87, -0.013, 0.012, 1, -0.818, -0.08)" xlink:href="#o"/><radialGradient id="fg" cx="-2.553" cy="2.248" r="21.468" gradientTransform="matrix(1.233, -0.013, 0.017, 1, 0.916, -0.054)" xlink:href="#o"/><radialGradient id="fh" cx="-13.677" cy="-0.126" r="39.372" gradientTransform="matrix(0.883, -0.013, 0.012, 1, -1.799, -0.209)" xlink:href="#o"/><radialGradient id="fi" cx="-10.951" cy="0.761" r="21.41" gradientTransform="matrix(1.264, -0.013, 0.017, 1, 3.283, -0.167)" xlink:href="#o"/><radialGradient id="fj" cx="-13.577" cy="4.143" r="38.711" gradientTransform="matrix(0.901, -0.013, 0.012, 1, -1.56, -0.208)" xlink:href="#o"/><radialGradient id="fk" cx="-14.768" cy="2.081" r="38.711" gradientTransform="matrix(0.901, -0.013, 0.012, 1, -1.652, -0.224)" xlink:href="#o"/><radialGradient id="fl" cx="-7.872" cy="4.77" r="46.039" gradientTransform="matrix(0.49, -0.013, 0.007, 1, -4.667, -0.122)" xlink:href="#o"/><radialGradient id="fm" cx="-10.371" cy="1.956" r="21.429" gradientTransform="matrix(1.205, -0.013, 0.016, 1, 2.404, -0.158)" xlink:href="#o"/><radialGradient id="fn" cx="1.699" cy="3.062" r="101.288" gradientTransform="matrix(0.876, -0.013, 0.012, 1, -0.214, -0.023)" xlink:href="#o"/><radialGradient id="fo" cx="0.969" cy="1.295" r="54.926" gradientTransform="matrix(1.214, -0.013, 0.016, 1, 0.353, -0.022)" xlink:href="#o"/><radialGradient id="fp" cx="5.061" cy="4.681" r="167.344" gradientTransform="matrix(0.879, -0.013, 0.012, 1, -0.071, -0.009)" xlink:href="#o"/><radialGradient id="fq" cx="2.757" cy="5.796" r="212.114" gradientTransform="matrix(0.456, -0.013, 0.006, 1, -0.534, -0.013)" xlink:href="#o"/><radialGradient id="fr" cx="-0.36" cy="7.13" r="168.317" gradientTransform="matrix(0.448, 0.856, -0.742, 0.517, 41.215, -3.587)" xlink:href="#o"/><radialGradient id="fs" cx="-0.58" cy="3.449" r="90.094" gradientTransform="matrix(0.637, 0.856, -1.056, 0.517, 27.287, -6.694)" xlink:href="#o"/><radialGradient id="ft" cx="5.061" cy="4.681" r="167.346" gradientTransform="matrix(0.879, -0.013, 0.012, 1, -0.392, -0.048)" xlink:href="#o"/><radialGradient id="fu" cx="2.757" cy="5.796" r="212.108" gradientTransform="matrix(0.456, -0.013, 0.006, 1, -1.552, -0.039)" xlink:href="#o"/><radialGradient id="fv" cx="5.988" cy="-1.8" r="167.796" gradientTransform="matrix(0.441, -0.864, 0.755, 0.504, 63.836, -16.813)" xlink:href="#o"/><radialGradient id="fw" cx="4.193" cy="-0.155" r="90.775" gradientTransform="matrix(0.614, -0.864, 1.052, 0.504, 44.452, -5.221)" xlink:href="#o"/><radialGradient id="fx" cx="-14.323" cy="5.953" r="61.938" gradientTransform="matrix(0.899, -0.013, 0.012, 1, -1.802, -0.234)" xlink:href="#o"/><radialGradient id="fy" cx="-9.839" cy="7.083" r="74.14" gradientTransform="matrix(0.487, -0.013, 0.007, 1, -6.12, -0.159)" xlink:href="#o"/><radialGradient id="fz" cx="-22.585" cy="7.065" r="103.881" gradientTransform="matrix(0.879, -0.013, 0.012, 1, -3.393, -0.372)" xlink:href="#o"/><radialGradient id="ga" cx="-17.745" cy="4.653" r="56.249" gradientTransform="matrix(1.252, -0.013, 0.017, 1, 5.448, -0.291)" xlink:href="#o"/><radialGradient id="gb" cx="-0.244" cy="-6.065" r="165.728" gradientTransform="matrix(0.471, -0.845, -0.746, -0.536, 9.422, 16.23)" xlink:href="#o"/><radialGradient id="gc" cx="-0.491" cy="-2.48" r="90.185" gradientTransform="matrix(0.65, -0.845, -1.029, -0.536, 6.068, 12.097)" xlink:href="#o"/><radialGradient id="gd" cx="0.339" cy="0.326" r="39.607" gradientTransform="matrix(0.878, -0.013, 0.012, 1, -0.176, -0.021)" xlink:href="#o"/><radialGradient id="ge" cx="-0.051" cy="1.004" r="21.432" gradientTransform="matrix(1.251, -0.013, 0.017, 1, 0.383, -0.021)" xlink:href="#o"/><radialGradient id="gf" cx="-3.539" cy="0.915" r="11.095" gradientTransform="matrix(1.237, -0.013, 0.017, 1, 1.01, -0.058)" xlink:href="#o"/></defs><g transform="translate(1336.033 177.973)" opacity="0.35"><g transform="translate(273.789)" opacity="0.47"><path d="M2667.373,1114.913l-9.14-20.962-44.514-6.976-26.373,34.628,18.16,41.617,44.506,6.974,17.361-22.795Z" transform="translate(-2359.187 -910.464)" fill="url(#a)"/><path d="M2697.935,1182.044l-5.066,6.414,2.609,2.01,2.457-3.012Z" transform="translate(-2389.749 -937.998)" fill="url(#b)"/><path d="M2551.542,994.23l23.06,2.37,12.709-18.619-10.343-20.976-23.053-2.361L2541.2,973.254Z" transform="translate(-2345.823 -872.138)" fill="url(#c)"/><path d="M2621.97,1060.866l-16.23-1.8-10.032,14.868-1.48-1.163,9.482-14.155-22.132-44.935-16.856-2.182.092-1.65,17.7,2.043,9.016-13.726,1.383.979-8.377,13.2,22.146,44.94,15.374,1.942Z" transform="translate(-2352.634 -884.743)" fill="url(#d)"/><path d="M2429.364,980.2l12.913-18.479-10.14-21.062-23.044-2.588-12.9,18.478,10.136,21.071Z" transform="translate(-2303.823 -867.338)" fill="url(#e)"/><path d="M2521.925,958.5l-9.189,12.942,8.154,16.737-1.7.625-7.8-15.869-49.327-5.535-9.829,13.269-1.394-.977,10.107-14.067-7.633-15.22,1.486-.66,7.491,14.389,49.33,5.537,8.932-12.142Z" transform="translate(-2319.652 -870.718)" fill="url(#f)"/><path d="M2622.887,856.88l10.04,21.282,22.95,2.888,12.913-18.4-10.043-21.27L2635.8,838.5Z" transform="translate(-2369.481 -838.499)" fill="url(#g)"/><path d="M2593.16,947.029l-6.942-15.02L2567.93,929.8l.251-1.8,17.362,2.024,27.641-39.38-6.935-15.748,1.478-.661,7.517,16.435,16.73,1.816-.125,1.661-15.927-1.5-27.666,39.37,6.395,14.367Z" transform="translate(-2353.564 -848.848)" fill="url(#h)"/><path d="M2304.627,1017.491l9.018.832,4.9-7.283-4.124-8.118-9.014-.828-4.891,7.283Z" transform="translate(-2276.113 -885.88)" fill="url(#i)"/><path d="M2332.389,1043.088l-6.34-.636-3.868,5.822-.577-.448,3.648-5.542-8.823-17.373-6.589-.785.024-.639,6.924.723,3.469-5.367.549.377-3.225,5.155,8.817,17.379,6.022.693Z" transform="translate(-2278.814 -890.731)" fill="url(#j)"/><path d="M2273.945,1012.12l3.082-4.4-2.349-5.017-5.434-.621-3.079,4.395,2.351,5.015Z" transform="translate(-2266.165 -885.878)" fill="url(#k)"/><path d="M2295.817,1006.984l-2.194,3.073,1.891,3.987-.4.147-1.81-3.777-11.628-1.332-2.344,3.151L2279,1012l2.411-3.346-1.772-3.625.357-.157,1.734,3.427,11.63,1.338,2.13-2.889Z" transform="translate(-2269.884 -886.685)" fill="url(#l)"/><path d="M2361.9,1078.9l-10.384-21.128-22.978-2.51-12.6,18.629,10.388,21.117,22.972,2.5Z" transform="translate(-2280.583 -901.28)" fill="url(#m)"/><path d="M2382.756,975.816l7.186,14.915,18.308,1.9-.22,1.81-17.381-1.738-26.962,39.861,7.191,15.643-1.466.686-7.784-16.321-16.745-1.54.1-1.664,15.938,1.239,26.987-39.853-6.628-14.27Z" transform="translate(-2288.963 -878.269)" fill="url(#n)"/></g><path d="M2283.311,1568.081l4.133-16.367L2275.514,1540l-16.068,4.656-4.126,16.362,11.931,11.7Z" transform="translate(-1989.236 -1041.671)" opacity="0.47" fill="url(#o)"/><path d="M2338.9,1524.874l-3,11.488,9.549,9.281-.988.9-9.1-8.772-34.389,9.959-3.344,11.894-1.165-.279,3.328-12.536-8.831-8.377.848-.878,8.513,7.848,34.4-9.943,3.012-10.88Z" transform="translate(-1999.559 -1037.206)" opacity="0.47" fill="url(#p)"/><path d="M2260.5,1653.459l-11.861-11.932-16.209,4.237-4.347,16.176,11.861,11.924,16.2-4.243Z" transform="translate(-1981.347 -1071.076)" opacity="0.47" fill="url(#q)"/><path d="M2254.562,1575.692l8.275,8.46,12.893-3.441.26,1.31-12.224,3.315-9.309,34.617,8.443,8.964-.842.857-9-9.279-11.746,3.288-.312-1.178,11.129-3.286,9.327-34.617-7.748-8.159Z" transform="translate(-1985.088 -1052.008)" opacity="0.47" fill="url(#r)"/><path d="M2457.285,1342.51l9.611-45.659-34.248-31.034-43.877,14.64-9.591,45.646,34.253,31.007Z" transform="translate(-2025.109 -962.261)" opacity="0.47" fill="url(#s)"/><path d="M2561.725,1166.606l9.2,22.467,28.761,4.3-1.082,3.476-28.076-3.529-65.822,73.614-8.617,33.992-3.247-.642,6.258-33.146-23.909-22.856,2.388-3.664,23.532,21.691,65.374-73.392-7.857-20.6Z" transform="translate(-2052.916 -933.527)" opacity="0.47" fill="url(#t)"/><path d="M2411.175,1509.744l-20.592-19.383-27,8.02-6.4,27.417,20.592,19.368,26.988-8.031Z" transform="translate(-2018.736 -1027.294)" opacity="0.47" fill="url(#u)"/><path d="M2397.481,1379.6l14.373,13.751,21.472-6.5.512,2.188-20.355,6.252-13.718,58.668,14.683,14.588-1.367,1.486-15.638-15.085-19.555,6.177-.588-1.961,18.517-6.141,13.749-58.671-13.473-13.274Z" transform="translate(-2024.564 -995.214)" opacity="0.47" fill="url(#v)"/><path d="M1937.368,1296.04l7.978,3.341,1.145,8.561-6.836,5.221-7.975-3.342-1.141-8.558Z" transform="translate(-1895.171 -971.014)" opacity="0.47" fill="url(#w)"/><path d="M1970.985,1282.75l-5.63-2.3-.877-6.823-.673.131.807,6.479-14.628,11.176-5.9-2.287-.243.569,6.161,2.491.727,6.246.62-.08-.607-5.951,14.625-11.184,5.385,2.111Z" transform="translate(-1899.022 -964.522)" opacity="0.47" fill="url(#x)"/><path d="M1895.421,1279.117l1.255,8.6-6.708,5.409-7.966-3.193-1.252-8.6,6.708-5.4Z" transform="translate(-1880.751 -965.19)" opacity="0.47" fill="url(#y)"/><path d="M1921.41,1303.466l-.932-6.041,5.364-4.281-.458-.512-5.107,4.042-17.048-6.831-1.087-6.266-.61.084,1.045,6.595-4.95,3.852.387.493,4.76-3.6,17.054,6.823.969,5.73Z" transform="translate(-1885.639 -967.404)" opacity="0.47" fill="url(#z)"/><path d="M2076.206,1279.007l21.668,10.115,2.223,23.774-19.457,13.662-21.657-10.12-2.21-23.768Z" transform="translate(-1931.731 -966.081)" opacity="0.47" fill="url(#aa)"/><path d="M2170.033,1246.661l-15.3-6.99-1.672-18.945-1.875.286L2152.7,1239l-41.634,29.244-16.051-6.972-.733,1.544,16.742,7.567,1.321,17.335,1.722-.154-1.023-16.507,41.626-29.269,14.641,6.431Z" transform="translate(-1942.596 -949.201)" opacity="0.47" fill="url(#ab)"/><path d="M1997.888,1255.4l1.633,14.518-11.568,8.712-13.206-5.811-1.627-14.513,11.569-8.7Z" transform="translate(-1907.503 -957.565)" opacity="0.47" fill="url(#ac)"/><path d="M2040.085,1297.715l-1.231-10.2,9.249-6.891-.74-.888-8.805,6.5-28.262-12.43-1.479-10.589-1.028.108,1.39,11.138-8.529,6.2.624.849,8.2-5.777,28.273,12.418,1.311,9.682Z" transform="translate(-1915.477 -961.509)" opacity="0.47" fill="url(#ad)"/><path d="M2240.942,1174.644l4.346,38.1-30.33,22.917-34.687-15.2-4.331-38.09,30.331-22.9Z" transform="translate(-1966.245 -931.463)" opacity="0.47" fill="url(#ae)"/><path d="M2343.187,1284.69l5.434-25.919,25.771-9.6-1.243-3.124-26.464,9.44-73.083-32.574-3.924-27.79-2.7.287,3.693,29.231-22.363,16.3,1.642,2.228,21.49-15.2,73.417,31.2-4.188,24.681Z" transform="translate(-1987.205 -941.787)" opacity="0.47" fill="url(#af)"/></g><g opacity="0.35"><g opacity="0.47"><path d="M44.343,706.051l-8.857,43.459L67.493,777.26l40.857-15.682,8.868-43.457L85.207,690.365Z" transform="translate(-10.283 -524.042)" fill="url(#ag)"/><path d="M20.016,762.074l7.22-33.3-3.027-.5-7.325,31.7L.007,766.456v6.593l18.782-7.213L41.6,784.321l2.073-2.451Z" transform="translate(-0.007 -535.022)" fill="url(#ah)"/><path d="M140.129,588l-21.42,6.937-15.815-15.221,5.6-22.144,21.415-6.927,15.816,15.212Z" transform="translate(-29.806 -483.574)" fill="url(#ai)"/><path d="M85.415,667.117l15.05-5.006,12.518,12.179,1.172-1.411L102.3,661.27l11.972-47.433,15.567-5.5-.42-1.559-16.392,5.538-11.323-11.293-1.117,1.216,10.61,10.916L99.216,660.6l-14.208,4.971Z" transform="translate(-24.626 -498.166)" fill="url(#aj)"/><path d="M253.354,549.853l-15.981-15.047,5.39-22.186,21.36-7.142L280.1,520.526l-5.384,22.193Z" transform="translate(-68.754 -470.494)" fill="url(#ak)"/><path d="M150.2,547.119l11.33,10.509-4.374,17.65,1.738.254,4.214-16.748L208.828,543.5l12,10.691,1.127-1.217-12.428-11.4,4.185-16.094-1.544-.33-4.217,15.271-45.727,15.286-10.925-9.8Z" transform="translate(-43.506 -476.192)" fill="url(#al)"/><path d="M44.888,471.183l-5.25,22.375-21.211,7.41L2.461,485.993l5.256-22.365,21.208-7.4Z" transform="translate(-0.718 -456.231)" fill="url(#am)"/><path d="M83.75,553.547l3.569-15.763,16.921-5.813-.6-1.674L87.56,535.748l-34.172-32.04L56.8,487.251l-1.537-.332-3.83,17.232-15.521,5.125.453,1.562,14.821-4.662L85.384,538.2,82.2,553.23Z" transform="translate(-10.407 -465.119)" fill="url(#an)"/><path d="M388.958,559.564l-8.4,2.622-6.115-5.969,2.283-8.594,8.393-2.618,6.11,5.97Z" transform="translate(-108.455 -481.942)" fill="url(#ao)"/><path d="M367.189,590.111l5.892-1.893L377.926,593l.458-.545L373.8,587.9l4.882-18.392,6.1-2.085-.152-.606-6.429,2.094-4.375-4.427-.446.471,4.1,4.274-4.874,18.4-5.579,1.882Z" transform="translate(-106.306 -487.582)" fill="url(#ap)"/><path d="M419.515,548.066l-3.811-3.576,1.221-5.271,5.035-1.695,3.808,3.576-1.223,5.269Z" transform="translate(-120.403 -479.775)" fill="url(#aq)"/><path d="M395.12,547.415l2.7,2.492-.993,4.194.412.059.959-3.978,10.773-3.628,2.86,2.537.263-.286-2.962-2.71.953-3.824-.371-.078-.957,3.626-10.773,3.635-2.6-2.33Z" transform="translate(-114.442 -481.128)" fill="url(#ar)"/><path d="M337.323,630.5l5.609-22.3,21.314-7.054,15.71,15.254-5.614,22.288-21.31,7.041Z" transform="translate(-97.702 -498.203)" fill="url(#as)"/><path d="M289.478,538.282l-3.822,15.711-17,5.529.574,1.686,16.154-5.182,33.624,32.638-3.68,16.408,1.53.359,4.107-17.176,15.591-4.864-.428-1.571-14.885,4.413L287.6,553.607l3.422-14.982Z" transform="translate(-77.814 -479.995)" fill="url(#at)"/></g><path d="M514.775,1082.771l-7.218-14.806,8.97-13.614,16.195,1.2,7.211,14.8-8.974,13.6Z" transform="translate(-147.006 -629.461)" opacity="0.47" fill="url(#au)"/><path d="M445.4,1054.93l5.16,10.373-7.2,10.806,1.12.662,6.875-10.228,34.658,2.552,5.57,10.691,1.05-.5-5.683-11.308,6.7-9.8-.982-.667-6.5,9.225L451.5,1064.2l-5.049-9.789Z" transform="translate(-128.414 -629.48)" opacity="0.47" fill="url(#av)"/><path d="M553.522,1159.786l8.862-13.808,16.244.766,7.383,14.581-8.863,13.8-16.238-.774Z" transform="translate(-160.319 -655.999)" opacity="0.47" fill="url(#aw)"/><path d="M542.047,1083.675l-6.155,9.762-12.935-.677.017,1.3,12.274.693,15.806,31.2-6.213,10.279.973.648,6.679-10.692,11.815.763.059-1.189-11.229-.887-15.823-31.2,5.715-9.368Z" transform="translate(-151.467 -637.954)" opacity="0.47" fill="url(#ax)"/><path d="M284.244,905.158,265.93,863.463l26.275-36.6,44.61,5.105,18.293,41.687L328.822,910.23Z" transform="translate(-77.025 -563.575)" opacity="0.47" fill="url(#ay)"/><path d="M135.084,760.914l-4.213,23.337-26.445,9.938,1.728,3.1,25.949-9.06,77.316,57.028L224.442,876l2.954-1.271-12.613-30.414,18.1-26.689-3-3.019L211.9,840.11,135.056,783.2l3.314-21.283Z" transform="translate(-30.25 -544.475)" opacity="0.47" fill="url(#az)"/><path d="M373.782,1054.005l15.653-22.7,27.252,2.2,11.6,24.908-15.656,22.684-27.243-2.208Z" transform="translate(-108.262 -622.787)" opacity="0.47" fill="url(#ba)"/><path d="M358.794,925.742,347.914,941.8l-21.7-1.862-.046,2.195,20.587,1.852,24.832,53.3L360.583,1014.2l1.6,1.143,11.813-17.587,19.812,1.943.164-1.993-18.819-2.118L350.287,942.29l10.122-15.417Z" transform="translate(-94.472 -592.213)" opacity="0.47" fill="url(#bb)"/><path d="M794.536,751.568l-6.9,4.809.635,8.414,7.542,3.605,6.9-4.81-.639-8.411Z" transform="translate(-228.123 -541.768)" opacity="0.47" fill="url(#bc)"/><path d="M755.637,746.812l4.882-3.343-.54-6.7.665-.011.538,6.356,16.139,7.718,5.145-3.381.345.494-5.349,3.629.567,6.117-.6.049-.621-5.811L760.666,744.2l-4.688,3.109Z" transform="translate(-218.856 -537.478)" opacity="0.47" fill="url(#bd)"/><path d="M831,726.886l.539,8.474L839,739.171l6.921-4.666-.541-8.471-7.457-3.806Z" transform="translate(-240.684 -533.27)" opacity="0.47" fill="url(#be)"/><path d="M806.5,755.225l-.331-5.963-5.955-3,.332-.582,5.663,2.828,14.814-9.983-.229-6.21.6-.043.335,6.515,5.475,2.68-.269.549-5.244-2.474-14.821,9.976.233,5.673Z" transform="translate(-231.768 -536.178)" opacity="0.47" fill="url(#bf)"/><path d="M649.65,764.453l-18.54,14.058,2.674,23.174L655.01,810.8l18.528-14.059-2.685-23.166Z" transform="translate(-182.79 -545.5)" opacity="0.47" fill="url(#bg)"/><path d="M541.931,755.75l13.12-9.78-2.225-18.447,1.838-.106,2.181,17.5,45.419,19.518,13.839-9.916,1.006,1.327-14.374,10.624,2.234,16.836-1.666.2-2.351-15.984-45.416-19.543-12.608,9.113Z" transform="translate(-156.962 -534.773)" opacity="0.47" fill="url(#bh)"/><path d="M725.237,725.377l1.371,14.207,12.737,5.984,11.37-8.23-1.376-14.2L736.6,717.161Z" transform="translate(-210.052 -531.803)" opacity="0.47" fill="url(#bi)"/><path d="M685.853,774.045l-.884-10-10.17-4.713.524-1,9.67,4.434,24.335-17.606-.727-10.42,1-.105.922,10.928,9.346,4.194-.421.938-8.945-3.862-24.347,17.6.7,9.52Z" transform="translate(-195.444 -536.863)" opacity="0.47" fill="url(#bj)"/><path d="M463.383,698.973l3.541,37.3,33.411,15.76,29.879-21.554-3.554-37.285-33.409-15.739Z" transform="translate(-134.213 -520.303)" opacity="0.47" fill="url(#bk)"/><path d="M367.986,824.018,357.61,800.345l-26.4-3.952.551-3.238,27.029,3.662,62.841-45.939-1.867-27.357,2.62-.272,2.376,28.688,24.515,11.05-1.11,2.461L424.7,755.273l-63.436,44.692,8.944,22.742Z" transform="translate(-95.931 -533.566)" opacity="0.47" fill="url(#bl)"/></g><g transform="translate(1132.658 85.712)" opacity="0.18"><g transform="translate(319.608 0)" opacity="0.47"><path d="M2648.9,950.959l-40.78-19.049-34.928,25.969,5.833,45.016,40.778,19.051,34.935-25.966Z" transform="translate(-2197.53 -679.712)" fill="url(#bm)"/><path d="M2391.394,829.626l5.459,45.076-35.185,25.613-40.64-19.437-5.471-45.076,35.19-25.617Z" transform="translate(-2122.914 -644.457)" fill="url(#bn)"/><path d="M2522.218,965.119l-4.09-31.7,28.1-20.235-2.282-2.849-26.763,19.133-87.047-41.641-4.87-32.95-3.15.251,4.628,34.576-25.951,18.2,1.923,2.674,24.973-16.934,87.044,41.648,4.332,30.068Z" transform="translate(-2147.6 -657.399)" fill="url(#bo)"/><path d="M2319.63,701.916l21.413,8.88,17.512-14.2-3.9-23.06-21.409-8.869-17.512,14.186Z" transform="translate(-2122.966 -602.313)" fill="url(#bp)"/><path d="M2368.622,787.587l-15.034-6.373-13.872,11.369-1.085-1.539,13.141-10.843-8.326-49.393-15.523-6.921.561-1.555,16.368,7.029,12.571-10.567,1.045,1.334-11.808,10.241,8.338,49.4,14.173,6.266Z" transform="translate(-2126.495 -617.988)" fill="url(#bq)"/><path d="M2206.611,653.485l17.667-14L2220.6,616.4l-21.335-9.083-17.659,14,3.672,23.092Z" transform="translate(-2084.118 -585.701)" fill="url(#br)"/><path d="M2300.169,658.172l-12.513,9.766,3.015,18.372-1.806.112-2.926-17.438-45.671-19.439-13.219,9.9-1.055-1.336,13.714-10.58-2.951-16.769,1.613-.207,3.053,15.932,45.673,19.442,12.038-9.073Z" transform="translate(-2096.974 -592.429)" fill="url(#bs)"/><path d="M2427.371,590.8l3.52,23.266,21.16,9.345,17.646-13.931-3.526-23.256-21.158-9.332Z" transform="translate(-2155.298 -576.889)" fill="url(#bt)"/><path d="M2368.71,671.787l-2.347-16.38-16.888-7.355.758-1.657,16.054,6.915,37.767-29.806-2.131-17.075,1.605-.21,2.492,17.9,15.508,6.535-.6,1.556-14.829-6L2368.316,656l2.009,15.6Z" transform="translate(-2132.738 -585.383)" fill="url(#bu)"/><path d="M2077.729,652.526l8.4,3.381,6.777-5.574-1.625-8.959-8.4-3.376-6.773,5.576Z" transform="translate(-2053.564 -594.587)" fill="url(#bv)"/><path d="M2097.224,685.651l-5.892-2.427-5.375,4.47-.425-.595,5.084-4.264-3.475-19.172-6.087-2.64.206-.605,6.426,2.677,4.862-4.147.418.518-4.567,4.014,3.466,19.177,5.571,2.39Z" transform="translate(-2054.996 -600.655)" fill="url(#bw)"/><path d="M2050.21,638.375l4.212-3.327-.813-5.48-5.028-2.152-4.21,3.328.815,5.478Z" transform="translate(-2044.372 -591.522)" fill="url(#bx)"/><path d="M2072.317,639.48l-2.982,2.315.669,4.362-.427.025-.652-4.138-10.759-4.609-3.149,2.347-.246-.314,3.268-2.515-.658-3.981.387-.048.679,3.78,10.759,4.615,2.868-2.157Z" transform="translate(-2047.384 -593.118)" fill="url(#by)"/><path d="M2699.756,769.146l-.6.515.6,3.173Z" transform="translate(-2234.014 -632.571)" fill="url(#bz)"/><path d="M2675.087,816.49l-1.5-8.843-8.117-3.412-6.622,5.435,1.5,8.839,8.116,3.407Z" transform="translate(-2222.34 -642.734)" fill="url(#ca)"/><path d="M2699.854,782.279l-.357.05.357,2.436Z" transform="translate(-2234.113 -636.375)" fill="url(#cb)"/><path d="M2692.021,792.947v-1.658l-13.67,11.2-5.685-2.183-.216.6,5.947,2.381,1.069,6.805.61-.091-.927-6.493Z" transform="translate(-2226.279 -638.984)" fill="url(#cc)"/><path d="M2113.677,728.677l-3.894-23.218-21.295-8.99-17.407,14.238,3.9,23.208,21.293,8.977Z" transform="translate(-2052.108 -611.522)" fill="url(#cd)"/><path d="M2158.922,638.843l2.61,16.348,16.994,7.071-.73,1.671-16.154-6.646-37.255,30.462,2.406,17.047-1.6.237-2.78-17.867-15.6-6.275.571-1.566,14.915,5.754,37.276-30.447-2.26-15.57Z" transform="translate(-2062.456 -594.832)" fill="url(#ce)"/><path d="M2681.44,941.317v-8.375l-12.745,10.225-31.353-13.025-1.425,3.229L2668.88,947.2l4.945,31.608,3.127-.418-4.245-30.066Z" transform="translate(-2215.698 -679.2)" fill="url(#cf)"/></g><path d="M1897.91,1175.641l8.65-14.5-8.072-14.642-16.729-.144-8.642,14.494,8.076,14.633Z" transform="translate(-1675.165 -741.822)" opacity="0.47" fill="url(#cg)"/><path d="M1964.095,1153.045l-6.166,10.147,6.489,11.629-1.205.582-6.2-11.012-35.8-.314-6.613,10.437-1.036-.6,6.781-11.056-6.06-10.556,1.064-.6,5.907,9.958,35.805.332,6-9.561Z" transform="translate(-1686.877 -743.369)" opacity="0.47" fill="url(#ch)"/><path d="M1851.657,1250.763l-7.944-14.831-16.743-.586-8.8,14.252,7.946,14.823,16.738.578Z" transform="translate(-1659.25 -767.594)" opacity="0.47" fill="url(#ci)"/><path d="M1865.144,1173.978l5.5,10.477,13.338.4-.127,1.33-12.661-.327-18.839,30.5,5.52,11.008-1.053.579-5.964-11.469-12.2-.217.039-1.218,11.6.041,18.857-30.492-5.085-10.037Z" transform="translate(-1665.187 -749.821)" opacity="0.47" fill="url(#cj)"/><path d="M2124.644,1013.336l22.293-40.99L2123.02,932.8l-46.232,1.452-22.27,40.983,23.93,39.523Z" transform="translate(-1727.703 -679.969)" opacity="0.47" fill="url(#ck)"/><path d="M2273.083,878.606l2.375,24.161,26.322,12.363-2.033,3.02-25.886-11.427L2189.7,958.386l-18,30.1-2.927-1.546,15.495-29.963-16.356-28.749,3.337-2.826,16.329,27.525,83.665-51.578-1.624-21.989Z" transform="translate(-1760.546 -664.273)" opacity="0.47" fill="url(#cl)"/><path d="M2035.444,1157.975l-14.174-24.471-28.166-.054-13.993,24.432,14.178,24.457,28.157.041Z" transform="translate(-1705.863 -738.083)" opacity="0.47" fill="url(#cm)"/><path d="M2054.467,1027.84l9.829,17.293,22.434-.073-.136,2.243-21.293.156-29.956,52.276,9.887,18.184-1.735,1.032-10.659-18.934-20.505.314v-2.047l19.5-.577,29.987-52.27-9.1-16.579Z" transform="translate(-1715.484 -707.495)" opacity="0.47" fill="url(#cn)"/><path d="M1645.732,814.365l6.686,5.487-1.356,8.53-8.046,3.042-6.682-5.487,1.36-8.526Z" transform="translate(-1606.586 -645.668)" opacity="0.47" fill="url(#co)"/><path d="M1681.035,812.854l-4.734-3.821,1.115-6.788-.682-.068-1.084,6.438-17.218,6.515-5-3.882-.4.475,5.188,4.152-1.094,6.192.617.1,1.124-5.875,17.217-6.524,4.554,3.566Z" transform="translate(-1611.424 -642.138)" opacity="0.47" fill="url(#cp)"/><path d="M1610.412,786.117l-1.262,8.6-7.976,3.26-6.716-5.342,1.264-8.6,7.975-3.255Z" transform="translate(-1594.458 -635.942)" opacity="0.47" fill="url(#cq)"/><path d="M1628.249,816.6l.839-6.055,6.366-2.564-.292-.622-6.052,2.408-14.376-11.43.755-6.315-.608-.094-.889,6.618-5.846,2.272.23.583,5.591-2.082,14.384,11.424-.714,5.767Z" transform="translate(-1598.422 -639.169)" opacity="0.47" fill="url(#cr)"/><path d="M1781.282,839.309l17.861,15.9-4.684,23.414-22.557,7.513-17.849-15.9,4.694-23.4Z" transform="translate(-1640.681 -652.892)" opacity="0.47" fill="url(#cs)"/><path d="M1879.037,839.7l-12.653-11.081,3.828-18.63-1.878-.263-3.7,17.667-48.268,16.085-13.38-11.28-1.144,1.269,13.871,12.047-3.7,16.986,1.694.346,3.75-16.107,48.268-16.112,12.183,10.357Z" transform="translate(-1654.52 -644.324)" opacity="0.47" fill="url(#ct)"/><path d="M1714.447,793.331l-2.6,14.377-13.579,5.032-10.986-9.352,2.6-14.371,13.578-5.024Z" transform="translate(-1621.343 -636.871)" opacity="0.47" fill="url(#cu)"/><path d="M1742.787,845.486l1.744-10.127,10.836-3.952-.454-1.062-10.3,3.708L1721.1,814.046l1.618-10.568-1.016-.191-1.86,11.069-9.947,3.492.354.992,9.508-3.186,23.528,20-1.518,9.652Z" transform="translate(-1627.891 -642.459)" opacity="0.47" fill="url(#cv)"/><path d="M1967.094,787.808l-6.756,37.75-35.625,13.263-28.877-24.5,6.767-37.734,35.62-13.242Z" transform="translate(-1681.744 -630.89)" opacity="0.47" fill="url(#cw)"/><path d="M2033.593,921.29l12.635-23.275,27.44-1.809-.295-3.349-28.059,1.46-60.683-52.152,4.2-27.748-2.668-.5-4.839,29.064-26.1,9.207.934,2.6,24.945-8.4,61.4,50.929-11.086,22.445Z" transform="translate(-1698.947 -645.538)" opacity="0.47" fill="url(#cx)"/></g><g transform="translate(0 44.218)" opacity="0.17"><g transform="translate(0 155.899)" opacity="0.47"><path d="M386.7,956.795l40.332,19.98,35.515-25.16-4.8-45.138-40.33-19.982L381.9,911.652Z" transform="translate(-110.614 -780.963)" fill="url(#cy)"/><path d="M171.445,1122.274l41.171,17.951,34.2-26.973-6.956-44.922-41.169-17.953-34.2,26.97Z" transform="translate(-47.644 -828.427)" fill="url(#cz)"/><path d="M641.458,1083.975l-4.422-45.19,35.764-24.8,40.183,20.365,4.434,45.19-35.769,24.8Z" transform="translate(-184.507 -817.888)" fill="url(#da)"/><path d="M487.579,936.542l3.361,31.79-28.554,19.584,2.216,2.9L491.8,972.3l86.068,43.629,4.112,33.053,3.155-.178-3.833-34.673,26.362-17.6-1.861-2.717-25.355,16.356-86.064-43.636-3.641-30.16Z" transform="translate(-133.924 -795.41)" fill="url(#db)"/><path d="M725.649,1231.432l-21.2-9.369-17.834,13.789L689.978,1259l21.2,9.358,17.833-13.78Z" transform="translate(-198.865 -878.152)" fill="url(#dc)"/><path d="M679.608,1133.509l14.884,6.717,14.13-11.048,1.05,1.563-13.386,10.539,7.189,49.571,15.36,7.276-.6,1.541-16.2-7.4-12.811,10.275-1.014-1.357,12.04-9.968-7.2-49.58-14.025-6.59Z" transform="translate(-196.668 -851.25)" fill="url(#dd)"/><path d="M837.587,1282.429,819.6,1296.023l3.148,23.163,21.121,9.571,17.976-13.595-3.14-23.171Z" transform="translate(-237.383 -895.636)" fill="url(#de)"/><path d="M731.278,1271.285l12.734-9.476-2.592-18.436,1.808-.071,2.524,17.5,45.213,20.483,13.443-9.589,1.024,1.36-13.953,10.262,2.565,16.833-1.617.17-2.686-16-45.215-20.486-12.243,8.794Z" transform="translate(-211.802 -884.303)" fill="url(#df)"/><path d="M615.591,1339.892l-2.984-23.341-20.94-9.828-17.961,13.522,2.991,23.331,20.938,9.815Z" transform="translate(-166.165 -902.672)" fill="url(#dg)"/><path d="M663.9,1252.558l1.97,16.429,16.715,7.74-.8,1.639-15.891-7.282-38.442,28.931,1.738,17.12-1.61.173-2.08-17.953-15.354-6.889.632-1.542,14.687,6.342,38.462-28.915-1.65-15.639Z" transform="translate(-176.721 -886.984)" fill="url(#dh)"/><path d="M23.32,829.337,11.6,749.362l12.429-10.155-1.07-1.269-13.222,10.5L.007,744.748v1.863l8.235,3.257L19.99,829.833,6.427,840.955l1.112,1.422L21.86,830.77l15.449,5.786.613-1.511Z" transform="translate(-0.007 -737.937)" fill="url(#di)"/><path d="M55.117,1059.632l17.455-14.472-3.9-23.084L47.3,1013.464l-17.443,14.474,3.914,23.076Z" transform="translate(-8.652 -817.736)" fill="url(#dj)"/><path d="M31.536,916.641l17.455-14.472-3.9-23.084-21.369-8.612L6.274,884.947l3.913,23.076Z" transform="translate(-1.822 -776.323)" fill="url(#dk)"/><path d="M148.46,1062.208,136.1,1072.282l3.2,18.373-1.8.149-3.108-17.428-45.728-18.437-13.06,10.226-1.062-1.3,13.548-10.945-3.123-16.764,1.627-.24,3.191,15.91,45.727,18.463,11.894-9.4Z" transform="translate(-21.595 -824.238)" fill="url(#dl)"/><path d="M58.825,992.14,43.8,985.7,29.845,996.977l-1.067-1.542,13.148-11.084-8.149-49.022-15.519-7,.552-1.546,16.386,7.1,12.628-10.471,1.054,1.345L37.012,934.9l8.179,49.355,14.2,6.336Z" transform="translate(-5.293 -791.657)" fill="url(#dm)"/><path d="M976.775,1298.008l-8.321-3.573-6.9,5.417,1.419,8.994,8.319,3.568,6.9-5.419Z" transform="translate(-278.494 -899.113)" fill="url(#dn)"/><path d="M958.343,1260.074l5.834,2.561,5.476-4.345.411.6-5.18,4.146,3.033,19.247,6.025,2.779-.22.6-6.363-2.824-4.956,4.035-.406-.528,4.658-3.908-3.025-19.251-5.515-2.517Z" transform="translate(-277.499 -888.644)" fill="url(#do)"/><path d="M1006.667,1315.658l-4.288,3.23.687,5.5,4.977,2.267,4.285-3.23-.689-5.495Z" transform="translate(-290.319 -905.26)" fill="url(#dp)"/><path d="M981.526,1313.026l3.035-2.246-.569-4.376.428-.016.557,4.152,10.65,4.854,3.2-2.274.239.319-3.325,2.439.567,4-.388.039-.592-3.794-10.65-4.86-2.917,2.091Z" transform="translate(-284.28 -902.575)" fill="url(#dq)"/><path d="M338.306,1145.759l-10.979,9.012,2.379,14.471,13.365,5.46,10.972-9.012-2.385-14.466Z" transform="translate(-94.807 -856.053)" fill="url(#dr)"/><path d="M271.847,1141.585l7.775-6.272-1.953-11.518,1.129-.088,1.9,10.926,28.6,11.689,8.213-6.365.662.819-8.521,6.815,1.908,10.51-1.02.145-1.953-9.975-28.6-11.705-7.48,5.849Z" transform="translate(-78.739 -849.666)" fill="url(#ds)"/><path d="M383.568,1120.465l1.293,8.875,8.037,3.6,6.745-5.281-1.3-8.871-8.036-3.592Z" transform="translate(-111.096 -847.2)" fill="url(#dt)"/><path d="M361.051,1151.266l-.86-6.248-6.415-2.831.292-.631,6.1,2.663,14.437-11.3-.777-6.513.612-.077.913,6.828,5.89,2.517-.23.592-5.633-2.313-14.445,11.294.733,5.949Z" transform="translate(-102.468 -850.425)" fill="url(#du)"/><path d="M932.256,1209.287l3.359,23.3,21.083,9.476,17.729-13.834-3.366-23.292-21.081-9.463Z" transform="translate(-270.01 -870.452)" fill="url(#dv)"/><path d="M873.007,1290.064l-2.234-16.4-16.827-7.46.768-1.654,16,7.015,37.945-29.6-2.014-17.1,1.606-.2,2.369,17.926,15.453,6.631-.607,1.553-14.778-6.1-37.966,29.583,1.9,15.618Z" transform="translate(-247.329 -878.905)" fill="url(#dw)"/><path d="M337.85,945.324l4.217,31.714L374.7,991.62l-1.5,3.2L342.16,981.074l-74.055,56.664,3.775,33.076-3.136.345-4.44-34.623-30-12.99,1.181-2.96,28.719,11.917,74.06-56.677-3.553-30.155Z" transform="translate(-67.867 -798.002)" fill="url(#dx)"/></g><path d="M30.394,666.854.007,653.784v65.059L9.1,722.757l26.843-20.975Z" transform="translate(-0.007 -557.665)" opacity="0.47" fill="url(#dy)"/><path d="M198.03,672.835l-12.758-5.2-10.3,8.351,2.458,13.553,12.755,5.189,10.3-8.354Z" transform="translate(-50.681 -561.678)" opacity="0.47" fill="url(#dz)"/><path d="M168.719,615.928l8.947,3.728,8.17-6.7.644.9-7.728,6.389,5.255,29,9.244,4.052-.314.913-9.759-4.112-7.392,6.216-.635-.787,6.943-6.018-5.241-29.011-8.461-3.669Z" transform="translate(-48.776 -545.841)" opacity="0.47" fill="url(#ea)"/><path d="M243.993,698.8l-6.4,4.983,1.228,8.288,7.635,3.3,6.4-4.984-1.231-8.285Z" transform="translate(-68.817 -570.703)" opacity="0.47" fill="url(#eb)"/><path d="M205.768,695.448l4.534-3.467-1.011-6.6.65-.034.985,6.259,16.338,7.075,4.787-3.514.373.477-4.968,3.765,1,6.022-.588.068-1.026-5.717L210.5,692.7l-4.36,3.229Z" transform="translate(-59.601 -566.808)" opacity="0.47" fill="url(#ec)"/><path d="M127.547,539.773l5.886,35.121,32.338,13.8,26.461-21.33-5.9-35.106L154,518.477Z" transform="translate(-36.946 -518.477)" opacity="0.47" fill="url(#ed)"/><path d="M40.662,662.883l-3.945-24.728L10.909,627.293l1.111-2.517,24.531,10.21,56.633-45.637L89.55,563.567l2.433-.342,4.2,27.024,23.693,9.643-.869,2.361-22.65-8.85L39.693,639.016l3.414,23.549Z" transform="translate(-3.165 -531.437)" opacity="0.47" fill="url(#ee)"/><path d="M1161.8,774.387l-8.981,14.293,7.734,14.824,16.721.528,8.973-14.291-7.738-14.815Z" transform="translate(-333.89 -592.595)" opacity="0.47" fill="url(#ef)"/><path d="M1088.019,797.5l6.4-10-6.22-11.775,1.218-.554,5.949,11.151,35.784,1.136L1138,777.173l1.022.625-7.033,10.9,5.815,10.693-1.078.574-5.677-10.091-35.788-1.154-6.221,9.42Z" transform="translate(-315.123 -592.821)" opacity="0.47" fill="url(#eg)"/><path d="M1209.751,700.2l7.6,15.009,16.725.97,9.125-14.046-7.6-15-16.72-.962Z" transform="translate(-350.379 -567.044)" opacity="0.47" fill="url(#eh)"/><path d="M1189.64,766.8l-5.261-10.6-13.325-.7.157-1.327,12.65.617,19.534-30.056-5.266-11.132,1.066-.555,5.7,11.6,12.187.5-.067,1.217-11.6-.307-19.552,30.051,4.853,10.151Z" transform="translate(-339.171 -574.829)" opacity="0.47" fill="url(#ei)"/><path d="M907.589,909.979,884.36,950.445l23,40.086,46.253-.39,23.205-40.461-23.016-40.062Z" transform="translate(-256.138 -631.761)" opacity="0.47" fill="url(#ej)"/><path d="M739.174,1030.074l-1.819-24.209L711.325,992.9l2.1-2.973,25.617,12.018,85.322-49.716,18.684-29.675,2.89,1.612-16.179,29.6,15.691,29.117-3.4,2.749-15.692-27.893-84.828,49.643,1.118,22.021Z" transform="translate(-206.023 -635.508)" opacity="0.47" fill="url(#ek)"/><path d="M1014.655,780.716l13.608,24.791,28.157.7,14.551-24.1-13.612-24.776-28.149-.688Z" transform="translate(-293.875 -587.455)" opacity="0.47" fill="url(#el)"/><path d="M985.217,893.293l-9.429-17.514-22.43-.442.188-2.239,21.291.333,31.148-51.574-9.467-18.406,1.759-.991,10.221,19.174,20.507.157-.046,2.047-19.508.128-31.179,51.568,8.72,16.783Z" transform="translate(-276.121 -600.725)" opacity="0.47" fill="url(#em)"/><path d="M1412.6,1146.51l-6.558-5.639,1.552-8.5,8.114-2.857,6.554,5.639-1.555,8.493Z" transform="translate(-407.23 -695.45)" opacity="0.47" fill="url(#en)"/><path d="M1372.464,1146.034l4.645,3.929-1.27,6.761.681.083,1.232-6.412,17.363-6.117,4.909,4,.406-.466-5.091-4.271,1.235-6.165-.615-.115-1.258,5.848-17.362,6.127-4.471-3.669Z" transform="translate(-397.505 -697.691)" opacity="0.47" fill="url(#eo)"/><path d="M1447.313,1175.507l1.459-8.567,8.049-3.075,6.592,5.495-1.461,8.564-8.048,3.071Z" transform="translate(-419.183 -705.397)" opacity="0.47" fill="url(#ep)"/><path d="M1425.654,1141.451l-.978,6.034-6.423,2.417.277.628,6.105-2.269,14.109,11.757-.9,6.3.606.108,1.041-6.6,5.9-2.137-.216-.588-5.638,1.953-14.117-11.752.846-5.75Z" transform="translate(-410.767 -698.906)" opacity="0.47" fill="url(#eq)"/><path d="M1265.934,1106.222l-17.491-16.307,5.22-23.3,22.723-6.993,17.479,16.307-5.23,23.291Z" transform="translate(-361.586 -675.206)" opacity="0.47" fill="url(#er)"/><path d="M1155.258,1101.078l12.4,11.369-4.254,18.537,1.871.307,4.108-17.578L1218,1098.74l13.117,11.584,1.173-1.243-13.591-12.362,4.092-16.9-1.685-.385-4.12,16.017-48.625,15-11.942-10.634Z" transform="translate(-334.597 -680.945)" opacity="0.47" fill="url(#es)"/><path d="M1338.942,1161.157l2.926-14.314,13.691-4.718,10.769,9.6-2.93,14.307-13.69,4.711Z" transform="translate(-387.796 -699.101)" opacity="0.47" fill="url(#et)"/><path d="M1304.519,1102.676l-1.976,10.084-10.924,3.7.43,1.073,10.383-3.471,23.048,20.543-1.86,10.528,1.012.215,2.114-11.024,10.025-3.262-.331-1-9.579,2.967-23.063-20.535,1.739-9.614Z" transform="translate(-374.09 -687.675)" opacity="0.47" fill="url(#eu)"/><path d="M1068.4,1141.661l7.621-37.585,35.92-12.442,28.306,25.159-7.632,37.568-35.915,12.421Z" transform="translate(-309.441 -684.478)" opacity="0.47" fill="url(#ev)"/><path d="M986.3,993.224,973.133,1016.2l-27.474,1.178.218,3.355,28.086-.815,59.469,53.532-4.841,27.645,2.656.559,5.505-28.945,26.3-8.605-.874-2.625-25.131,7.828-60.211-52.326,11.6-22.185Z" transform="translate(-273.892 -655.976)" opacity="0.47" fill="url(#ew)"/></g><g transform="translate(452.384 313.653)" opacity="0.31"><path d="M1291.169,983.561l-31.8.969-14.921,27.911,16.87,26.946,31.8-.967,14.926-27.911Z" transform="translate(-812.811 -976.046)" fill="url(#ex)"/><path d="M995.064,1151.86l15.29,27.894-16.541,26.982-31.822-.9-15.3-27.89,16.543-26.987Z" transform="translate(-726.575 -1024.53)" fill="url(#ey)"/><path d="M1196.256,1156.372l-31.813-.6-16.279,27.141,15.52,27.745,31.813.6,16.285-27.141Z" transform="translate(-784.926 -1025.922)" fill="url(#ez)"/><path d="M1119.316,1203.707l-10.919-19.547,13.266-21.4-2.243-1.2-12.673,20.3-68.161-1.924-11.756-20.135-2.01,1.08,12.019,21.268-12.379,19.45,1.961,1.189,12.063-18.337,68.161,1.929,10.654,18.406Z" transform="translate(-749.098 -1027.087)" fill="url(#fa)"/><path d="M913.439,1095.765l16.414-.419,7.857-14.376-8.55-13.949-16.408.425-7.86,14.37Z" transform="translate(-714.469 -1000.218)" fill="url(#fb)"/><path d="M966.97,1131.661l-11.56.2-6.192,11.469-1.114-.691,5.846-10.913-18.3-29.884-12.025-.013-.033-1.18,12.609-.162,5.543-10.567,1.035.569-5.124,10.131,18.309,29.886,10.965-.022Z" transform="translate(-719.885 -1006.851)" fill="url(#fc)"/><path d="M826.383,1092.359l8.01-14.3-8.412-14.029-16.415.263-8,14.294,8.409,14.035Z" transform="translate(-684.541 -999.353)" fill="url(#fd)"/><path d="M890.682,1068.762l-5.712,10.026,6.752,11.139-1.161.6-6.451-10.555-35.138.566-6.144,10.316-1.041-.567,6.292-10.907-6.294-10.11,1.009-.6,6.144,9.533,35.14-.565,5.579-9.434Z" transform="translate(-696.191 -1000.559)" fill="url(#fe)"/><path d="M955.582,987.257l8.354,14.193,16.367-.041,8.014-14.242-8.356-14.185-16.362.049Z" transform="translate(-729.15 -972.982)" fill="url(#ff)"/><path d="M940.889,1052.987l-5.8-10.031-13.036.1.069-1.3,12.373-.146,17.155-30.476-5.833-10.548,1-.6,6.285,10.983,11.914-.235.011,1.191-11.329.385-17.173,30.472,5.37,9.617Z" transform="translate(-719.44 -980.801)" fill="url(#fg)"/><path d="M1430.26,1186.791l-8.745-13.956-16.36.5-7.616,14.46,8.747,13.948,16.355-.5Z" transform="translate(-857.151 -1030.864)" fill="url(#fh)"/><path d="M1438.973,1110.8l6.071,9.866,13-.751v1.3l-12.364.787-16.3,30.94,6.124,10.382-.986.632-6.588-10.8-11.9.566-.044-1.19,11.313-.7,16.32-30.937-5.635-9.464Z" transform="translate(-862.492 -1012.896)" fill="url(#fi)"/><path d="M1398.335,997.221l-7.423,14.7,8.885,13.746,16.314-.959,7.415-14.7-8.889-13.738Z" transform="translate(-855.232 -979.727)" fill="url(#fj)"/><path d="M1452.975,1082.553l-7.423,14.7,8.885,13.746,16.314-.959,7.415-14.7-8.889-13.738Z" transform="translate(-871.057 -1004.442)" fill="url(#fk)"/><path d="M1328.246,1025.925l5.3-10.3-7.134-10.912,1.134-.647,6.812,10.329,34.912-2.047,5.719-10.611,1.051.518-5.84,11.225,6.64,9.9-1,.653-6.45-9.321-34.919,2.03-5.186,9.717Z" transform="translate(-836.553 -981.31)" fill="url(#fl)"/><path d="M1410.867,1033.49l11.577-.424,6.015-11.566,1.12.672-5.541,11.193,18.774,29.235,12.052-.216.064,1.17-12.647.412-5.37,10.638-1.057-.548,4.963-10.191-18.885-29.441-11.012.242Z" transform="translate(-861.012 -987.034)" fill="url(#fm)"/><path d="M730.686,1121.232l9.148-.33,4.309-8.012-4.843-7.684-9.144.334-4.3,8.011Z" transform="translate(-662.614 -1011.277)" fill="url(#fn)"/><path d="M760.728,1143.389l-6.436.18-3.4,6.4-.62-.379,3.2-6.087-10.361-16.446-6.7.062-.03-.65,7.031-.168,3.036-5.886.585.31-2.808,5.64,10.354,16.454,6.121-.082Z" transform="translate(-665.665 -1015.682)" fill="url(#fo)"/><path d="M699.243,1119.983l2.728-4.852-2.792-4.775-5.522.077-2.726,4.851,2.793,4.772Z" transform="translate(-652.5 -1012.769)" fill="url(#fp)"/><path d="M720.917,1112.033l-1.947,3.4,2.243,3.792-.393.2-2.144-3.59-11.818.163-2.091,3.5-.347-.191,2.142-3.7-2.092-3.441.346-.206,2.037,3.245,11.82-.157,1.9-3.2Z" transform="translate(-656.407 -1013.198)" fill="url(#fq)"/><path d="M675.807,1090.042l5.565-.1,2.711-4.822-2.856-4.727-5.563.1-2.708,4.821Z" transform="translate(-647.294 -1004.092)" fill="url(#fr)"/><path d="M693.827,1103.841l-3.915.036-2.14,3.851-.372-.237,2.016-3.663-6.11-10.118-4.074-.039-.011-.4,4.276-.021,1.913-3.544.352.195-1.772,3.4,6.106,10.122,3.722.021Z" transform="translate(-649.109 -1006.789)" fill="url(#fs)"/><path d="M654.047,1219.746l1.83-3.253-1.872-3.2-3.7.052-1.828,3.253,1.873,3.2Z" transform="translate(-640.203 -1042.581)" fill="url(#ft)"/><path d="M668.581,1214.415l-1.305,2.278,1.5,2.543-.263.135-1.437-2.408-7.925.109-1.4,2.344-.233-.128,1.436-2.482-1.4-2.307.232-.138,1.366,2.176,7.926-.105,1.273-2.147Z" transform="translate(-642.823 -1042.869)" fill="url(#fu)"/><path d="M644.25,1236.634l-1.845-3.245-3.709-.046-1.864,3.2,1.845,3.243,3.708.044Z" transform="translate(-636.831 -1048.389)" fill="url(#fv)"/><path d="M646.852,1219.526l1.279,2.293,2.954.021-.02.3-2.8-.009-3.991,6.848,1.286,2.41-.229.134-1.387-2.51-2.7.013v-.27l2.568-.049,3.995-6.847-1.184-2.2Z" transform="translate(-638.108 -1044.387)" fill="url(#fw)"/><path d="M703.345,1182.57l4.694-9.189-5.525-8.638-10.224.552-4.689,9.187,5.527,8.633Z" transform="translate(-651.536 -1028.52)" fill="url(#fx)"/><path d="M742.8,1166l-3.354,6.436,4.437,6.857-.713.4-4.237-6.491-21.879,1.179-3.615,6.63-.657-.328,3.692-7.015-4.13-6.219.626-.406,4.013,5.859,21.882-1.168,3.278-6.072Z" transform="translate(-658.702 -1028.787)" fill="url(#fy)"/><path d="M684.407,1215.1l-3.28-5.349-6.234.129-2.954,5.48,3.281,5.345,6.232-.131Z" transform="translate(-646.999 -1041.557)" fill="url(#fz)"/><path d="M687.965,1186.186l2.277,3.78,4.965-.128-.017.5-4.712.141-6.324,11.727,2.295,3.977-.378.237-2.47-4.14-4.536.172-.012-.453,4.312-.225,6.331-11.725-2.112-3.626Z" transform="translate(-649.059 -1034.731)" fill="url(#ga)"/><path d="M922.752,1266.038l13.214.546,6.207,11.635-7.011,11.093-13.209-.55-6.2-11.634Z" transform="translate(-717.614 -1057.858)" fill="url(#gb)"/><path d="M966.194,1226.211l-9.3-.308-4.9-9.292-.895.544,4.612,8.838-15,23.743-9.678-.139-.045.942,10.156.295,4.373,8.547.846-.444-4.044-8.189,14.991-23.754,8.842.163Z" transform="translate(-722.028 -1043.543)" fill="url(#gc)"/><path d="M784.673,1168.568l-8.588-14.053-16.364.313-7.777,14.373,8.59,14.045,16.359-.32Z" transform="translate(-670.171 -1025.558)" fill="url(#gd)"/><path d="M794.114,1092.672l5.961,9.933,13.033-.317-.047,1.305-12.369.351L784.044,1134.7l6.007,10.45-.993.621-6.467-10.877-11.908.433-.03-1.19,11.321-.573,16.666-30.752-5.528-9.527Z" transform="translate(-675.589 -1007.647)" fill="url(#ge)"/><path d="M1217.5,1138.145l-11.457-19.235-25.308.541.1-2.526,24.038-.6,32.793-59.312-11.543-20.252,1.952-1.182,12.4,21.05,23.147-.763.042,2.277-22.019,1.068-32.792,59.321,10.6,18.43Z" transform="translate(-794.36 -991.112)" fill="url(#gf)"/></g></svg>