<?xml version="1.0" encoding="utf-8"?>
<!-- Generator: Adobe Illustrator 24.2.0, SVG Export Plug-In . SVG Version: 6.00 Build 0)  -->
<svg version="1.1" xmlns="http://www.w3.org/2000/svg" xmlns:xlink="http://www.w3.org/1999/xlink" x="0px" y="0px"
	 viewBox="0 0 300 220" style="enable-background:new 0 0 300 220;" xml:space="preserve" width="140" height="90">
<style type="text/css">
	.st0{fill:#3E4F8C;}
	.st1{fill:#263877;}
	.st2{fill:#222E6A;}
	.st3{fill:#192656;}
	.st4{fill:#2593D2;}
	.st5{fill:#FFFFFF;}
</style>
<g id="Ñëîé_1">
	<g>
		<path d="M149.5,100.3l-16.1,38.5c0,0-0.8,5.4,2.3,4.6c3.1-0.8,18.2-39.9,18.2-39.9L149.5,100.3z"/>
		<path d="M209,124.9c0,0,2.8,40.7,3.7,43.7c0.9,2.9,2.3,4.8,4.4,3.4c2.9-1.9,0.1-49.1,0.1-49.1L209,124.9z"/>
		<path d="M234.5,108.6c0,0,10.1,24.1,11.2,25.8c1.1,1.7,2.4,2.5,3.4,1.3c1.4-1.7-9.4-32.3-9.4-32.3L234.5,108.6z"/>
		<path class="st0" d="M228.3,77.6c-2.4,1.3-4.3,3.2-5.4,4.1c-1.4,1.1-3.1,1.1-7.6,1.1c-4.5,0-17.3-3.7-23.8-5.1
			c-6.5-1.4-24.2-6.1-27.3-5.5c-3.1,0.6-5.7,4.6-5.7,4.6l-12,20.6c-1.1-1.4-1.9-2.9-2.3-4.5c-1.7-7.4,22.9-33.1,33.7-36.2
			c10.8-3.1,13-2.5,13-2.5s23.3,9.3,31.1,15.3C224.5,71.4,226.7,74.8,228.3,77.6z"/>
		<path class="st1" d="M269,41.4c-3,32.7-24,30.9-28,31.5c-4.2,0.6-7.1,2.5-10.5,3.7c-0.8,0.3-1.5,0.6-2.3,1
			c-1.6-2.8-3.7-6.2-6.3-8.1c-7.7-6-31.1-15.3-31.1-15.3l8.2-19.8c0,0,1.1-3.7,4.2-4.8c3.1-1.1,51.2,12.2,52.9,12.7
			c1.7,0.6,3.4,2.5,3.4,2.5s4.8-4.2,7.9-3.7C268.1,41.3,268.6,41.4,269,41.4z"/>
		<path class="st2" d="M276.9,53.7c0,1.1-0.2,2.1-0.6,3c-2.5,5.9-5.9,11-5.9,11l-42.2,48.4c0,0-5.4,6.8-16.7,8.5
			c-11.3,1.7-18.7,0.3-22.1-0.8c-1.5-0.5-7.7-4-14.3-7.7c-8.5-4.8-17.4-10.1-17.4-10.1s-7.3-3.5-11.3-8.5l12-20.6
			c0,0,2.6-4.1,5.7-4.6c3.1-0.6,20.8,4.1,27.3,5.5c6.5,1.4,19.2,5.1,23.8,5.1c4.5,0,6.2,0,7.6-1.1c1.1-0.9,3-2.7,5.4-4.1
			c0.7-0.4,1.5-0.8,2.3-1c3.4-1.1,6.2-3.1,10.5-3.7c4.1-0.5,25.1,1.2,28-31.5c2.1,0.3,3.1,0.3,3.1,0.3S276.9,48.2,276.9,53.7z"/>
		<path class="st3" d="M276.9,53.7c0,1.1-0.2,2.1-0.6,3c-2.5,5.9-5.9,11-5.9,11l-42.2,48.4c0,0-5.4,6.8-16.7,8.5
			c-11.3,1.7-18.7,0.3-22.1-0.8c-1.5-0.5-7.7-4-14.3-7.7c10.2-0.7,24.7-3.5,42.8-11.7C249,90.2,270.8,62.2,276.9,53.7z"/>
		<path d="M273.5,40.7L273,40h-0.9c0,0-0.9,0-2.7-0.3l-0.1,0c-0.4-0.1-0.8-0.1-1.4-0.2c-1.7-0.3-3.9,0.3-6.4,1.9
			c-0.7,0.4-1.2,0.8-1.7,1.2c-0.8-0.7-1.8-1.5-3-1.9c-0.9-0.3-13.6-3.8-26-7c-25.5-6.6-27.2-6-28-5.7c-3.6,1.3-5.1,5.2-5.3,5.9
			l-7.7,18.6c-1.8,0.1-5.4,0.6-12.3,2.6c-6.4,1.9-16,10.3-22.3,17c-3.9,4.1-7.1,8.1-9.3,11.6c-2.7,4.3-3.8,7.4-3.3,9.7
			c0.3,1.4,1,2.8,1.9,4.2l0,0l0.5,0.6c0.1,0.3,0.3,0.5,0.5,0.7l1.3,1.7l0.1-0.1c4,4.1,9.4,6.7,10.2,7.1c0.8,0.5,9.4,5.5,17.4,10.1
			c11.2,6.4,13.7,7.5,14.6,7.8c1.9,0.6,6.1,1.7,12.7,1.7c2.9,0,6.4-0.2,10.2-0.8c11.6-1.7,17.3-8.5,17.8-9.1l42.1-48.4l0.1-0.1
			l0.1-0.1c0.1-0.2,3.5-5.3,6.1-11.3c0.5-1.1,0.7-2.4,0.7-3.7v0C278.7,47.6,273.8,41,273.5,40.7z M200.7,35.1L200.7,35.1l0.1-0.2
			c0,0,0.9-2.8,3.1-3.6c0.8-0.1,4.9,0.3,26.7,5.9c12.6,3.3,24.4,6.6,25.1,6.8c0.9,0.3,2.1,1.4,2.6,2l1.2,1.4l1.3-1.2
			c1.6-1.4,4.7-3.4,6.3-3.3c0,0.1,0,0.2,0,0.2c0,0,0,0.1,0,0.1c0,0.2,0,0.3-0.1,0.5c0,0.1,0,0.1,0,0.2c0,0.2,0,0.3-0.1,0.5
			c0,0.1,0,0.1,0,0.2c0,0.1,0,0.3-0.1,0.4c0,0.1,0,0.1,0,0.2c0,0.1,0,0.3-0.1,0.4c0,0.1,0,0.1,0,0.2c0,0.1,0,0.3-0.1,0.4
			c0,0.1,0,0.1,0,0.2c0,0.1,0,0.3-0.1,0.4c0,0.1,0,0.1,0,0.2c0,0.1,0,0.3-0.1,0.4c0,0.1,0,0.1,0,0.2c0,0.1,0,0.2-0.1,0.4
			c0,0.1,0,0.1,0,0.2c0,0.1,0,0.2-0.1,0.3c0,0.1,0,0.1,0,0.2c0,0.1,0,0.2-0.1,0.3c0,0.1,0,0.1,0,0.2c0,0.1,0,0.2-0.1,0.3
			c0,0.1,0,0.1,0,0.2c0,0.1,0,0.2-0.1,0.3c0,0.1,0,0.1-0.1,0.2c0,0.1,0,0.2-0.1,0.3c0,0.1,0,0.2-0.1,0.2c0,0.1,0,0.2-0.1,0.3
			c0,0.1,0,0.2-0.1,0.2c0,0.1,0,0.2-0.1,0.3c0,0.1,0,0.2-0.1,0.2c0,0.1,0,0.2-0.1,0.2c0,0.1,0,0.2-0.1,0.3c0,0.1,0,0.1-0.1,0.2
			c0,0.1-0.1,0.2-0.1,0.3c0,0.1,0,0.1-0.1,0.2c0,0.1-0.1,0.2-0.1,0.3c0,0.1,0,0.1-0.1,0.2c0,0.1-0.1,0.2-0.1,0.3c0,0,0,0.1,0,0.1
			c0,0.1-0.1,0.2-0.1,0.3c0,0,0,0.1,0,0.1c0,0.1-0.1,0.2-0.1,0.3c0,0,0,0,0,0c-0.6,1.7-1.3,3.3-2.1,4.7c0,0,0,0,0,0
			c-0.1,0.1-0.1,0.2-0.2,0.3c0,0,0,0,0,0c-0.1,0.1-0.1,0.2-0.2,0.3c0,0,0,0,0,0c-0.1,0.1-0.1,0.2-0.2,0.3c0,0,0,0,0,0
			c-0.1,0.1-0.1,0.2-0.2,0.3c0,0,0,0,0,0c-0.1,0.1-0.1,0.2-0.2,0.3c0,0,0,0,0,0c-0.1,0.1-0.1,0.2-0.2,0.3c0,0,0,0,0,0
			c-0.1,0.1-0.1,0.2-0.2,0.3c0,0,0,0,0,0c-0.1,0.1-0.1,0.2-0.2,0.3c0,0,0,0,0,0c-0.1,0.1-0.1,0.2-0.2,0.3c0,0,0,0,0,0
			c-0.1,0.1-0.1,0.2-0.2,0.3c0,0,0,0,0,0c-0.1,0.1-0.1,0.2-0.2,0.3c0,0,0,0,0,0c-0.1,0.1-0.1,0.2-0.2,0.2c0,0,0,0,0,0
			c-0.1,0.1-0.1,0.2-0.2,0.2c0,0,0,0,0,0c-0.1,0.1-0.1,0.2-0.2,0.2c0,0,0,0,0,0c-0.1,0.1-0.1,0.2-0.2,0.2c0,0,0,0,0,0
			c-0.1,0.1-0.1,0.2-0.2,0.2c0,0,0,0,0,0c-0.1,0.1-0.1,0.1-0.2,0.2c0,0,0,0,0,0c-0.1,0.1-0.1,0.1-0.2,0.2c0,0,0,0,0,0
			c-0.1,0.1-0.1,0.1-0.2,0.2c0,0,0,0,0,0c-0.1,0.1-0.1,0.1-0.2,0.2c0,0,0,0,0,0c-0.1,0.1-0.1,0.1-0.2,0.2c0,0,0,0,0,0
			c-0.1,0.1-0.1,0.1-0.2,0.2c0,0,0,0,0,0c-0.1,0.1-0.2,0.1-0.2,0.2c0,0,0,0,0,0c-0.1,0.1-0.2,0.1-0.2,0.2c0,0,0,0,0,0
			c-2.3,2-4.8,3.2-7.1,4c0,0,0,0,0,0c-0.1,0-0.1,0-0.2,0.1c0,0,0,0,0,0c-0.1,0-0.1,0-0.2,0.1c0,0,0,0,0,0c-0.1,0-0.1,0-0.2,0.1
			c0,0,0,0,0,0c-0.1,0-0.1,0-0.2,0.1c0,0,0,0,0,0c-0.1,0-0.1,0-0.2,0.1c0,0,0,0,0,0c-0.1,0-0.1,0-0.2,0c0,0,0,0,0,0
			c-0.1,0-0.1,0-0.2,0c0,0,0,0-0.1,0c-0.1,0-0.1,0-0.2,0c0,0,0,0-0.1,0c-0.1,0-0.1,0-0.2,0c0,0,0,0-0.1,0c-0.1,0-0.1,0-0.2,0
			c0,0,0,0-0.1,0c0,0-0.1,0-0.1,0c0,0-0.1,0-0.1,0c0,0-0.1,0-0.1,0c0,0-0.1,0-0.1,0c0,0-0.1,0-0.1,0c0,0-0.1,0-0.1,0
			c0,0-0.1,0-0.1,0c0,0-0.1,0-0.1,0c0,0-0.1,0-0.1,0c0,0-0.1,0-0.1,0c0,0-0.1,0-0.1,0c0,0-0.1,0-0.1,0c0,0-0.1,0-0.1,0
			c0,0-0.1,0-0.1,0c0,0-0.1,0-0.1,0c0,0-0.1,0-0.1,0c0,0-0.1,0-0.1,0c0,0-0.1,0-0.1,0c0,0,0,0-0.1,0c0,0-0.1,0-0.1,0c0,0,0,0-0.1,0
			c-0.1,0-0.1,0-0.1,0c0,0,0,0,0,0c-0.1,0-0.1,0-0.2,0c0,0,0,0,0,0c-0.1,0-0.1,0-0.2,0c0,0,0,0,0,0c-1,0.1-2,0.2-2.7,0.2
			c-0.6,0-1.1,0.1-1.5,0.1c-3,0.4-5.3,1.4-7.5,2.4c-1.1,0.5-2.2,1-3.3,1.3c-0.1,0-0.3,0.1-0.4,0.2c0,0-0.1,0-0.1,0
			c-0.1,0.1-0.3,0.1-0.4,0.2c0,0,0,0,0,0c0,0,0,0,0,0c-0.1-0.2-0.2-0.4-0.3-0.5c0,0,0-0.1-0.1-0.1c-0.1-0.2-0.2-0.3-0.3-0.5
			c0,0,0-0.1-0.1-0.1c-0.1-0.2-0.2-0.3-0.3-0.5c0,0,0,0,0-0.1c-0.1-0.2-0.2-0.3-0.3-0.5c0,0,0,0,0,0c-0.1-0.2-0.2-0.3-0.3-0.5
			c0,0,0-0.1-0.1-0.1c-0.1-0.1-0.2-0.3-0.3-0.4c0,0,0-0.1-0.1-0.1c-0.1-0.1-0.2-0.3-0.3-0.4c0,0,0,0-0.1-0.1
			c-0.1-0.1-0.2-0.3-0.3-0.4c0,0,0,0,0,0c-0.1-0.1-0.2-0.3-0.3-0.4c0,0,0,0-0.1-0.1c-0.1-0.1-0.2-0.2-0.3-0.4c0,0,0,0-0.1-0.1
			c-0.1-0.1-0.2-0.2-0.3-0.3c0,0,0,0-0.1-0.1c-0.1-0.1-0.2-0.2-0.3-0.3c0,0,0,0,0,0c-0.1-0.1-0.2-0.2-0.3-0.3c0,0,0,0-0.1-0.1
			c-0.1-0.1-0.2-0.2-0.3-0.3c0,0,0,0-0.1-0.1c-0.1-0.1-0.2-0.2-0.3-0.3c0,0,0,0,0,0c-0.1-0.1-0.2-0.2-0.3-0.3
			c-0.1-0.1-0.2-0.1-0.3-0.2c0,0,0,0,0,0c-0.1-0.1-0.2-0.1-0.3-0.2c0,0,0,0-0.1,0c-0.1-0.1-0.2-0.1-0.3-0.2c0,0,0,0,0,0
			c-0.1-0.1-0.2-0.1-0.3-0.2c0,0,0,0,0,0c-0.1-0.1-0.2-0.1-0.3-0.2c0,0,0,0-0.1,0c-0.1-0.1-0.2-0.1-0.3-0.2c0,0,0,0-0.1,0
			c-0.1-0.1-0.2-0.2-0.4-0.2c0,0,0,0,0,0c-0.1-0.1-0.3-0.2-0.4-0.2c0,0,0,0-0.1,0c-0.1-0.1-0.2-0.2-0.4-0.2c0,0-0.1,0-0.1,0
			c-0.1-0.1-0.3-0.2-0.4-0.2c0,0,0,0,0,0c-0.1-0.1-0.3-0.2-0.4-0.2c0,0,0,0-0.1,0c-0.1-0.1-0.3-0.2-0.4-0.2c0,0-0.1,0-0.1,0
			c-0.1-0.1-0.3-0.2-0.4-0.2c0,0,0,0-0.1,0c-0.1-0.1-0.3-0.2-0.4-0.2c0,0,0,0,0,0c-0.1-0.1-0.3-0.2-0.4-0.2c0,0-0.1,0-0.1,0
			c-0.1-0.1-0.3-0.2-0.4-0.2c0,0-0.1,0-0.1,0c-0.1-0.1-0.3-0.2-0.4-0.2c0,0,0,0,0,0c-0.1-0.1-0.3-0.2-0.4-0.2c0,0,0,0-0.1,0
			c-0.1-0.1-0.3-0.2-0.5-0.2c0,0-0.1,0-0.1,0c-0.2-0.1-0.3-0.2-0.5-0.2c0,0-0.1,0-0.1,0c-0.2-0.1-0.3-0.2-0.5-0.2c0,0,0,0,0,0
			c-0.2-0.1-0.3-0.2-0.5-0.2c0,0-0.1,0-0.1,0c-0.2-0.1-0.3-0.2-0.5-0.2c0,0-0.1,0-0.1,0c-0.2-0.1-0.3-0.2-0.5-0.2c0,0,0,0,0,0
			c-0.2-0.1-0.3-0.2-0.5-0.2c0,0,0,0-0.1,0c-0.2-0.1-0.3-0.2-0.5-0.2c0,0-0.1,0-0.1,0c-0.2-0.1-0.3-0.2-0.5-0.2c0,0,0,0-0.1,0
			c-0.2-0.1-0.3-0.2-0.5-0.2c0,0,0,0,0,0c-0.2-0.1-0.3-0.2-0.5-0.2c0,0-0.1,0-0.1,0c-0.2-0.1-0.3-0.2-0.5-0.2c0,0-0.1,0-0.1,0
			c-0.2-0.1-0.3-0.2-0.5-0.2c0,0,0,0,0,0c-0.2-0.1-0.3-0.2-0.5-0.2c0,0,0,0-0.1,0c-0.2-0.1-0.3-0.2-0.5-0.2c0,0-0.1,0-0.1,0
			c-0.2-0.1-0.3-0.2-0.5-0.2c0,0,0,0-0.1,0c-0.2-0.1-0.3-0.2-0.5-0.2c0,0,0,0,0,0c-0.2-0.1-0.3-0.2-0.5-0.2c0,0,0,0-0.1,0
			c-0.2-0.1-0.3-0.1-0.5-0.2c0,0,0,0-0.1,0c-0.2-0.1-0.3-0.2-0.5-0.2c0,0,0,0,0,0c-0.2-0.1-0.3-0.2-0.5-0.2c0,0,0,0,0,0
			c-0.2-0.1-0.3-0.1-0.5-0.2c0,0,0,0-0.1,0c-0.2-0.1-0.3-0.1-0.5-0.2c0,0,0,0,0,0c-0.2-0.1-0.3-0.1-0.5-0.2c0,0,0,0,0,0
			c-0.2-0.1-0.3-0.1-0.5-0.2c0,0,0,0,0,0c-0.2-0.1-0.3-0.1-0.5-0.2c0,0,0,0,0,0c-0.3-0.1-0.6-0.3-1-0.4c0,0,0,0,0,0
			c-0.2-0.1-0.3-0.1-0.5-0.2c0,0,0,0,0,0c-0.5-0.2-0.9-0.4-1.4-0.6c0,0,0,0,0,0c-2.1-0.9-3.9-1.6-5.1-2.1L200.7,35.1z M148.7,85.6
			c2.1-3.3,5.3-7.2,8.9-11.1c7.8-8.3,16.1-14.7,20.7-16c7.9-2.3,11-2.5,11.9-2.5c0.1,0,0.1,0,0.2,0c0,0,0,0,0.1,0c0,0,0,0,0,0
			c0,0,0,0,0.1,0c0,0,0.1,0,0.1,0c0,0,0,0,0.1,0c3.1,1.2,19,7.8,27.3,12.9c0,0,0,0,0,0c0.1,0.1,0.3,0.2,0.4,0.3c0,0,0,0,0,0
			c0.1,0.1,0.3,0.2,0.4,0.3c0,0,0,0,0,0c0.1,0.1,0.3,0.2,0.4,0.2c0,0,0,0,0,0c0.1,0.1,0.2,0.2,0.4,0.2c0,0,0,0,0,0
			c0.1,0.1,0.2,0.2,0.3,0.2c0,0,0,0,0,0c0.1,0.1,0.2,0.2,0.3,0.2c0,0,0,0,0,0c0.1,0.1,0.2,0.2,0.3,0.2c0.1,0.1,0.2,0.1,0.3,0.2
			c0,0,0,0,0,0c0.1,0.1,0.2,0.1,0.3,0.2c0,0,0,0,0.1,0c0.1,0.1,0.2,0.2,0.3,0.2c0,0,0,0,0,0c0.1,0.1,0.2,0.2,0.3,0.3c0,0,0,0,0,0
			c0.1,0.1,0.2,0.2,0.3,0.3c0,0,0,0,0.1,0.1c0.1,0.1,0.2,0.2,0.3,0.3c0,0,0,0,0,0.1c0.1,0.1,0.2,0.2,0.3,0.3c0,0,0,0,0,0
			c0.1,0.1,0.2,0.2,0.3,0.3c0,0,0,0,0,0c0.1,0.1,0.2,0.2,0.3,0.3c0,0,0,0,0.1,0.1c0.1,0.1,0.2,0.2,0.3,0.4c0,0,0,0,0,0.1
			c0.1,0.1,0.2,0.3,0.3,0.4c0,0,0,0,0,0c0.1,0.1,0.2,0.3,0.3,0.4c0,0,0,0,0,0.1c0.1,0.1,0.2,0.3,0.3,0.4c0,0,0,0.1,0.1,0.1
			c0.1,0.1,0.2,0.3,0.3,0.4c0,0,0,0,0,0.1c0.1,0.1,0.2,0.3,0.3,0.4c0,0,0,0,0,0.1c0.1,0.2,0.2,0.3,0.3,0.5c0,0,0,0,0,0.1
			c0,0,0,0-0.1,0c-0.1,0.1-0.3,0.2-0.4,0.3c0,0,0,0-0.1,0c-0.1,0.1-0.3,0.2-0.4,0.3c0,0-0.1,0-0.1,0.1c-0.1,0.1-0.2,0.2-0.3,0.2
			c0,0-0.1,0.1-0.1,0.1c-0.1,0.1-0.2,0.2-0.4,0.3c0,0-0.1,0.1-0.1,0.1c-0.1,0.1-0.2,0.1-0.2,0.2c0,0-0.1,0.1-0.1,0.1
			c-0.1,0.1-0.2,0.1-0.2,0.2c-0.1,0.1-0.2,0.1-0.3,0.2c0,0,0,0-0.1,0.1c-0.2,0.1-0.3,0.3-0.4,0.4c-0.3,0.3-0.5,0.5-0.8,0.6
			c0,0-0.1,0.1-0.1,0.1c0,0,0,0-0.1,0c-0.9,0.7-2.2,0.7-6.5,0.7c-2.9,0-10.3-1.8-16.1-3.3c0,0,0,0,0,0c-2.7-0.7-5.3-1.3-7.3-1.8
			c-1.6-0.3-3.9-0.9-6.5-1.5c-1.3-0.3-2.5-0.6-3.7-0.9c-5.9-1.4-10.6-2.4-13.9-2.9c-1.8-0.3-3.1-0.3-3.9-0.2c-3.8,0.7-6.5,5-6.8,5.4
			l0,0l0,0l-10.5,18.1c-0.2-0.5-0.4-1-0.5-1.5C145.8,92.1,145.7,90.3,148.7,85.6z M274.8,56.1c-2.3,5.3-5.3,10-5.7,10.7L226.9,115
			l-0.1,0.1c0,0.1-5.1,6.3-15.6,7.8c-11.8,1.8-18.8,0-21.3-0.8c-0.6-0.2-3.3-1.5-13.9-7.6c-8.3-4.8-17.3-10.1-17.4-10.1l-0.1,0
			l-0.1,0c-0.1,0-6.1-3-9.9-7.1l6-10.4l5.3-9.1c0.6-0.9,2.6-3.5,4.5-3.8c0.3-0.1,1.7-0.1,7.6,1.1c3.9,0.8,8.4,1.9,12.4,2.8
			c2.7,0.6,4.9,1.2,6.6,1.5c1.7,0.4,3.9,0.9,6.3,1.5c0.3,0.1,0.6,0.1,0.9,0.2c6.4,1.6,13.6,3.4,17,3.4c4.7,0,6.7,0,8.6-1.4
			c0.1,0,0.1-0.1,0.2-0.1c0.1,0,0.1-0.1,0.2-0.1c0.2-0.2,0.5-0.4,0.8-0.7c0.5-0.5,1.2-1,1.9-1.5c0.7-0.5,1.5-1.1,2.3-1.6l0,0
			c0.1-0.1,0.3-0.2,0.4-0.2c0.5-0.3,1-0.5,1.5-0.7c0.1,0,0.1,0,0.2-0.1c1.2-0.4,2.3-0.9,3.4-1.4c2.1-0.9,4-1.8,6.5-2.1
			c0.3,0,0.7-0.1,1.3-0.1c1.4-0.1,3.6-0.2,6.1-0.8c0,0,0,0,0,0c0,0,0.1,0,0.1,0c2.8-0.6,6.1-1.8,9.2-4.1c0.2-0.2,0.4-0.3,0.7-0.5
			c0,0,0.1-0.1,0.1-0.1c0.2-0.1,0.3-0.3,0.5-0.4c0.1-0.1,0.1-0.1,0.2-0.2c0.1-0.1,0.3-0.2,0.4-0.4c0.1-0.1,0.2-0.1,0.2-0.2
			c0.1-0.1,0.3-0.2,0.4-0.4c0.1-0.1,0.2-0.2,0.2-0.2c0.1-0.1,0.2-0.2,0.4-0.4c0.1-0.1,0.2-0.2,0.2-0.3c0.1-0.1,0.2-0.2,0.3-0.4
			c0.1-0.1,0.2-0.2,0.2-0.3c0.1-0.1,0.2-0.2,0.3-0.4c0.1-0.1,0.2-0.2,0.2-0.3c0.1-0.1,0.2-0.2,0.3-0.4c0.1-0.1,0.2-0.2,0.2-0.3
			c0.1-0.1,0.2-0.3,0.3-0.4c0.1-0.1,0.2-0.2,0.2-0.3c0.1-0.1,0.2-0.3,0.3-0.4c0.1-0.1,0.1-0.2,0.2-0.3c0.1-0.1,0.2-0.3,0.3-0.4
			c0.1-0.1,0.1-0.2,0.2-0.3c0.1-0.1,0.2-0.3,0.3-0.4c0.1-0.1,0.1-0.2,0.2-0.3c0.1-0.1,0.2-0.3,0.2-0.4c0.1-0.1,0.1-0.2,0.2-0.4
			c0.1-0.1,0.2-0.3,0.2-0.4c0.1-0.1,0.1-0.2,0.2-0.4c0.1-0.1,0.2-0.3,0.2-0.4c0.1-0.1,0.1-0.3,0.2-0.4c0.1-0.2,0.1-0.3,0.2-0.5
			c0.1-0.1,0.1-0.3,0.2-0.4c0.1-0.2,0.1-0.3,0.2-0.5c0.1-0.1,0.1-0.3,0.2-0.4c0.1-0.2,0.1-0.3,0.2-0.5c0.1-0.1,0.1-0.3,0.2-0.4
			c0.1-0.2,0.1-0.3,0.2-0.5c0-0.1,0.1-0.3,0.1-0.4c0.1-0.2,0.1-0.4,0.2-0.6c0-0.1,0.1-0.2,0.1-0.4c0.1-0.3,0.2-0.6,0.3-0.9
			c0-0.1,0.1-0.3,0.1-0.4c0.1-0.2,0.1-0.4,0.2-0.6c0-0.2,0.1-0.3,0.1-0.5c0-0.2,0.1-0.3,0.1-0.5c0-0.2,0.1-0.3,0.1-0.5
			c0-0.2,0.1-0.3,0.1-0.5c0-0.2,0.1-0.4,0.1-0.5c0-0.2,0.1-0.3,0.1-0.5c0-0.2,0.1-0.4,0.1-0.6c0-0.2,0.1-0.3,0.1-0.5
			c0-0.2,0.1-0.4,0.1-0.6c0-0.2,0.1-0.3,0.1-0.5c0-0.2,0.1-0.4,0.1-0.6c0-0.2,0.1-0.3,0.1-0.5c0-0.2,0.1-0.4,0.1-0.6
			c0-0.2,0.1-0.3,0.1-0.5c0-0.2,0.1-0.4,0.1-0.6c0-0.2,0-0.4,0.1-0.5c0-0.2,0.1-0.4,0.1-0.6c0-0.1,0-0.2,0-0.3c0.2,0,0.4,0,0.6,0.1
			c1.1,1.7,4,6.3,4,10.3C275.2,54.6,275,55.4,274.8,56.1z"/>
	</g>
	<g>
		<path class="st4" d="M116.9,68.1c0,0-0.3,0.2-1,0.6c-0.8,0.5-2,1.2-3.6,2.1c-3.9,2.2-10.2,5.5-19.1,9.5
			c-16.1,7.3-31.8,10.3-37.2,10.3S37.9,83,37.9,83S23.7,44.3,22,39c-1.8-5.3-3.5-11.7-2.5-16.5c1.1-4.8,10.6-10.6,21.6-14.2
			c11-3.5,29.4-2,30.5-1.6c1.1,0.4,6,8.9,6.7,9c0.7,0.2,5.5,0.5,6.9,1.2c1.4,0.7,25,17.2,26.8,19.7c1.8,2.5,1.8,6.4,1.8,6.4
			l2.8,23.1L116.9,68.1z"/>
		<path d="M37.9,83c0,0-8,18.1-6.6,20c1.4,2,4.6-1.1,4.6-1.1l6.6-16.5L37.9,83z"/>
		<path d="M48.6,71.1c0,0-2.1,0.9-1.4,4.3c0.7,3.4,12.8,49.5,14,51.1c1.2,1.6,3.4-0.2,3.4-0.2l-4.1-22c0,0-0.9-5.9,0-8.2
			c0.9-2.3,4.6-6.4,4.6-6.4L59,91c0,0-2,3-2,4.3C57.1,96.5,48.6,71.1,48.6,71.1z"/>
		<path d="M124.6,105.8c-0.3,2-3,1.5-3,1.5l-7.1-21.2c0,0-2.1-5.6-4-7.1c-1.9-1.6-7.1-3.4-7.1-3.4l5.9-1.8c0,0,3.2,1.7,3.8,2.8
			c0.2,0.4-0.2-2.2-0.8-5.7c1.6-0.9,2.8-1.6,3.6-2.1C119.6,83.5,124.8,104.5,124.6,105.8z"/>
		<path d="M36.3,83.6l0.2,0.6l0.5,0.3c1.3,0.8,13,7.9,18.8,7.9c0.3,0,0.6,0,1,0l1.8,6.1l0.8-6.4C67,91.3,80.4,88,93.8,82
			c9.1-4.1,15.5-7.5,19.3-9.6c1.7-1,2.9-1.7,3.7-2.1c0.7-0.4,1.1-0.7,1.1-0.7l0.9-0.6l-0.1-0.9c0-0.5,0-1.3-0.3-2.3L115.6,43
			c0-0.7-0.2-4.6-2.1-7.3c-0.3-0.5-1.3-1.9-13.9-10.9c-5.6-4-12.5-8.8-13.5-9.3c-1.2-0.6-3.4-0.9-6-1.2c-0.3,0-0.6-0.1-0.9-0.1
			c-0.5-0.6-1.5-2.1-2.2-3.2c-2.9-4.3-3.7-5.5-4.8-5.8C71.3,4.8,66,4.3,60.1,4.3c-5.6,0-13.5,0.4-19.5,2.3
			C30.2,10,19.1,16.1,17.8,22.1c-1.2,5.2,0.6,11.7,2.5,17.4C22,44.9,35.7,82,36.3,83.6z M39.4,81.8c-1.4-3.7-9-24.6-13.2-36.2
			C43.8,60,47.3,62.9,47.7,63.3c0.9,0.9,1.1,2,1.1,2.1l0,0.1l7,23.3C51.8,88.8,43.1,84,39.4,81.8z M105.6,41.6l2.1,18.1
			c-3.8-1-11.4-2.9-18.5-3.6l-5.3-30.9c7.8,5.4,18.8,13.1,20.1,14.1C105.3,40.4,105.6,41.5,105.6,41.6z M105.6,41.5
			C105.6,41.5,105.6,41.5,105.6,41.5L105.6,41.5C105.6,41.6,105.6,41.5,105.6,41.5z M106,62.9c-2.9,2.1-8.9,6-20.8,11
			c-8.5,3.6-20.8,5.1-24.9,5.6c-0.8-2.9-2.4-8.4-4-13.2c1.3-0.6,3.3-1.5,5.4-2.3c6.1-2.1,12.7-3.6,20-4.5
			C88.8,58.7,100.4,61.4,106,62.9z M114.9,67.2c-0.7,0.4-1.9,1.1-3.5,2.1c-3.7,2.1-10,5.4-19,9.4c-12.5,5.6-25.1,8.8-32.4,9.8
			l0.7-5.5c4.5-0.5,16.9-2.1,25.8-5.8c15.9-6.7,21.9-11.5,23.8-13.3c1.3,0.2,3.1,0.6,3.9,1.5c0.4,0.4,0.6,0.8,0.8,1.2L114.9,67.2
			C115,67.2,114.9,67.2,114.9,67.2z M79.6,17.7c1.1,0.1,4.1,0.5,4.8,0.9c0.7,0.4,6.7,4.5,13.1,9.1c8.8,6.3,12.5,9.4,13.1,10.1
			c1.2,1.6,1.4,4.4,1.4,5.4v0.1l2.2,18.1c-1-0.4-2.1-0.7-2.9-0.8l-2.3-19.4c0-0.3-0.3-2.6-2.8-4.5c-2-1.6-22.9-16-23.8-16.6
			l-3.3-2.3C79.3,17.7,79.5,17.7,79.6,17.7z M21.2,22.9c0.4-1.8,2.7-4.1,6.3-6.5c3.8-2.4,8.8-4.7,14.1-6.4
			c9.9-3.2,26.4-2.1,29.2-1.6c0.7,0.7,2.2,3,3.2,4.5c2.6,3.8,3,4.4,3.9,4.6c0.2,0.1,0.6,0.1,1.1,0.2l6.6,38.2c-1.6,0-3.1,0-4.5,0.2
			c-7.6,0.9-14.4,2.5-20.8,4.7c-2,0.7-4,1.6-5.3,2.2c-0.7-2.1-1.4-3.8-2-4.7c-0.6-1.1-2.6-3.4-11.7-10.9c-5-4.1-9.7-7.8-9.8-7.8
			c-0.8-0.6-1.9-0.5-2.5,0.3c-0.6,0.8-0.5,1.9,0.3,2.5c7.2,5.6,19.3,15.4,20.7,17.8c0.2,0.3,0.4,0.7,0.6,1.3
			c-0.2-0.2-0.3-0.4-0.5-0.6c-0.3-0.3-1.2-1.2-26.3-21.6c-0.1-0.3-0.2-0.5-0.3-0.7C22,33.5,20.2,27.3,21.2,22.9z"/>
	</g>
	<g>
		<path class="st5" d="M5.5,204.8l4.2-27c-1.5,0.6-2.6,1.5-3.4,2.6c-0.8,1.2-1.2,2.6-1.2,4.3c0,0.8,0.1,1.4,0.2,2
			c0.1,0.5,0.3,1,0.4,1.3c0.2,0.3,0.3,0.6,0.5,0.8c0.2,0.2,0.3,0.4,0.4,0.5c-1.5,0-2.8-0.4-3.7-1.1c-0.9-0.7-1.4-1.9-1.4-3.6
			c0-1.2,0.3-2.3,0.9-3.4c0.6-1.1,1.3-2.1,2.3-3c1-0.9,2.1-1.6,3.3-2.2c1.2-0.6,2.5-0.8,3.9-0.8c1.1,0,2.1,0.2,3.2,0.6l3.5,20.8
			l4.3-20.8h5.7l2,29h-5.7L23.6,187l-3.7,17.7h-5.4l-3-17.7l-2.8,17.7H5.5z"/>
		<path class="st5" d="M49,185v13.4c0,1,0.1,1.7,0.4,2.1c0.3,0.4,0.7,0.6,1.4,0.6c1,0,1.7-0.3,2.2-1c0.5-0.7,0.7-1.5,0.8-2.4h1.7
			c-0.2,1.6-0.6,2.9-1.1,3.8c-0.5,1-1.1,1.7-1.8,2.2c-0.7,0.5-1.3,0.8-2,1c-0.7,0.2-1.3,0.2-1.9,0.2c-1.4,0-2.5-0.3-3.2-1
			c-0.7-0.7-1.2-1.6-1.5-2.8c-0.3,0.8-0.7,1.5-1.1,2c-0.4,0.5-0.9,0.9-1.4,1.1c-0.5,0.3-0.9,0.4-1.4,0.5c-0.5,0.1-0.9,0.1-1.3,0.1
			c-1.9,0-3.2-0.6-4-1.7c-0.8-1.1-1.2-2.6-1.2-4.5V185h5.7v13.4c0,1,0.1,1.7,0.4,2.1c0.3,0.4,0.7,0.6,1.2,0.6c0.7,0,1.3-0.3,1.8-1
			c0.5-0.7,0.7-1.5,0.7-2.5V185H49z"/>
		<path class="st5" d="M59.2,185v2.4c0.6-0.7,1.2-1.3,1.9-1.8c0.7-0.5,1.5-0.8,2.3-0.8c0.5,0,1,0.1,1.4,0.3c0.4,0.2,0.8,0.5,1.1,0.8
			c0.3,0.3,0.5,0.7,0.7,1.1c0.2,0.4,0.3,0.8,0.3,1.2c0,0.6-0.2,1.1-0.5,1.6c-0.4,0.5-0.9,0.7-1.8,0.7c-0.6,0-1-0.1-1.3-0.4
			c-0.2-0.3-0.4-0.5-0.6-0.8c-0.1-0.3-0.3-0.6-0.4-0.8c-0.1-0.3-0.4-0.4-0.8-0.4c-0.4,0-0.8,0.2-1.2,0.5c-0.4,0.3-0.8,0.7-1.2,1.1
			v15h-5.7V185H59.2z"/>
		<path class="st5" d="M88.1,192.8c0-1.6-0.2-2.7-0.6-3.4c-0.4-0.7-0.9-1-1.5-1c-0.8,0-1.3,0.4-1.7,1.1c-0.4,0.7-0.6,1.6-0.7,2.5
			v12.7h-5.7v-13.6c0-0.3,0-0.6-0.1-1c-0.1-0.3-0.1-0.6-0.3-0.9c-0.1-0.3-0.3-0.5-0.5-0.6c-0.2-0.2-0.5-0.3-0.8-0.3
			c-0.7,0-1.3,0.4-1.6,1.1c-0.4,0.7-0.6,1.6-0.7,2.6v12.7h-5.7V185H74l0,2.1c0.6-0.9,1.3-1.6,2.1-1.8c0.8-0.3,1.5-0.4,2.2-0.4
			c1,0,1.9,0.2,2.7,0.7c0.8,0.5,1.5,1.4,2.1,2.7c0.3-0.7,0.7-1.3,1.1-1.7c0.4-0.4,0.8-0.8,1.3-1c0.4-0.2,0.9-0.4,1.3-0.5
			c0.4-0.1,0.9-0.1,1.2-0.1c0.7,0,1.4,0.1,2.1,0.4c0.7,0.2,1.3,0.6,1.8,1.2c0.5,0.6,0.9,1.3,1.2,2.2c0.3,0.9,0.4,2.1,0.4,3.5
			c0,0.3,0,0.8,0,1.3c0,0.5,0,1-0.1,1.6c0,0.5,0,1-0.1,1.5c0,0.5,0,0.9,0,1.3c0,1.1,0.1,2,0.4,2.5c0.3,0.6,0.8,0.8,1.6,0.8
			c0.4,0,0.8-0.1,1.1-0.3c0.3-0.2,0.5-0.4,0.7-0.7c0.2-0.3,0.3-0.7,0.5-1.1c0.1-0.4,0.2-0.9,0.3-1.4h1.7c-0.2,1.6-0.5,2.8-0.9,3.8
			c-0.4,1-0.9,1.7-1.4,2.2c-0.5,0.5-1.1,0.9-1.7,1c-0.6,0.2-1.2,0.3-1.8,0.3c-2,0-3.4-0.7-4.4-2c-0.9-1.3-1.4-3.1-1.4-5.4
			c0-0.2,0-0.6,0-1c0-0.4,0-0.9,0-1.4c0-0.5,0-0.9,0-1.4C88.1,193.4,88.1,193.1,88.1,192.8z"/>
		<path class="st5" d="M113.5,185v13.4c0,1,0.1,1.7,0.4,2.1c0.3,0.4,0.7,0.6,1.4,0.6c1,0,1.7-0.3,2.2-1c0.5-0.7,0.7-1.5,0.8-2.4h1.7
			c-0.2,1.6-0.6,2.9-1.1,3.8c-0.5,1-1.1,1.7-1.8,2.2c-0.7,0.5-1.3,0.8-2,1c-0.7,0.2-1.3,0.2-1.9,0.2c-1.4,0-2.5-0.3-3.2-1
			c-0.7-0.7-1.2-1.6-1.5-2.8c-0.3,0.8-0.7,1.5-1.1,2c-0.4,0.5-0.9,0.9-1.4,1.1s-0.9,0.4-1.4,0.5c-0.5,0.1-0.9,0.1-1.3,0.1
			c-1.9,0-3.2-0.6-4-1.7c-0.8-1.1-1.2-2.6-1.2-4.5V185h5.7v13.4c0,1,0.1,1.7,0.4,2.1c0.3,0.4,0.7,0.6,1.2,0.6c0.7,0,1.3-0.3,1.8-1
			c0.5-0.7,0.7-1.5,0.7-2.5V185H113.5z"/>
		<path class="st5" d="M123.6,185v2.4c0.6-0.7,1.2-1.3,1.9-1.8c0.7-0.5,1.5-0.8,2.3-0.8c0.5,0,1,0.1,1.4,0.3
			c0.4,0.2,0.8,0.5,1.1,0.8c0.3,0.3,0.5,0.7,0.7,1.1c0.2,0.4,0.3,0.8,0.3,1.2c0,0.6-0.2,1.1-0.5,1.6c-0.4,0.5-0.9,0.7-1.8,0.7
			c-0.6,0-1-0.1-1.3-0.4c-0.2-0.3-0.4-0.5-0.6-0.8c-0.1-0.3-0.3-0.6-0.4-0.8c-0.1-0.3-0.4-0.4-0.8-0.4c-0.4,0-0.8,0.2-1.2,0.5
			c-0.4,0.3-0.8,0.7-1.2,1.1v15h-5.7V185H123.6z"/>
		<path class="st5" d="M141.8,201.7c0.8,0,1.5-0.1,2.1-0.3c0.6-0.2,1.1-0.5,1.6-0.8c0.5-0.4,0.9-0.8,1.3-1.3c0.4-0.5,0.8-1,1.1-1.6
			h1.3c-0.4,0.9-0.8,1.8-1.3,2.7c-0.5,0.9-1.1,1.6-1.9,2.3c-0.8,0.7-1.6,1.2-2.6,1.7c-1,0.4-2.2,0.6-3.5,0.6c-1.1,0-2.2-0.2-3.1-0.5
			c-0.9-0.3-1.8-0.9-2.5-1.6c-0.7-0.7-1.2-1.7-1.6-2.8c-0.4-1.1-0.6-2.5-0.6-4.1c0-1.1,0.1-2.3,0.4-3.6c0.3-1.3,0.7-2.5,1.3-3.6
			c0.6-1.1,1.5-2,2.6-2.8c1.1-0.7,2.4-1.1,4.1-1.1c1.3,0,2.2,0.2,2.9,0.6c0.7,0.4,1.2,0.9,1.5,1.4c0.3,0.5,0.5,1,0.6,1.5
			c0.1,0.5,0.1,0.9,0.1,1.1c0,1.2-0.2,2.2-0.7,3.1c-0.4,0.9-1,1.7-1.7,2.3c-0.7,0.6-1.6,1.1-2.5,1.4c-0.9,0.3-1.9,0.5-2.9,0.6
			c0,1.8,0.3,3,0.9,3.8C139.4,201.3,140.3,201.7,141.8,201.7z M142.6,189.5c0-0.9-0.2-1.6-0.5-1.9c-0.3-0.4-0.7-0.6-1-0.6
			c-0.4,0-0.9,0.2-1.2,0.6s-0.7,1-1,1.7c-0.3,0.7-0.5,1.6-0.7,2.5c-0.2,1-0.3,2-0.3,3c0.7-0.1,1.3-0.2,1.9-0.5
			c0.6-0.3,1.1-0.7,1.5-1.2c0.4-0.5,0.7-1,1-1.7C142.5,190.9,142.6,190.2,142.6,189.5z"/>
		<path class="st5" d="M157.2,183.8c0.7,2.6,1.2,4.6,1.7,6.2c0.4,1.6,0.8,2.9,1.1,4c0.3,1.1,0.4,2,0.6,2.8c0.1,0.8,0.2,1.7,0.2,2.6
			c0,1-0.2,1.9-0.6,2.6c-0.4,0.7-1,1.3-1.6,1.7c-0.6,0.4-1.4,0.8-2.2,0.9c-0.8,0.2-1.5,0.3-2.2,0.3c-1.2,0-2.2-0.2-3-0.6
			c-0.9-0.4-1.6-0.8-2.2-1.4c-0.6-0.6-1-1.2-1.3-1.9c-0.3-0.7-0.4-1.4-0.4-2c0-0.7,0.1-1.3,0.4-1.8c0.3-0.5,0.6-0.9,1-1.1
			c0.8-2,1.4-3.9,1.9-5.9c0.5-1.9,0.9-3.9,1.1-5.8L157.2,183.8z M151.6,198c0,0.4-0.1,0.8-0.4,1.1c-0.2,0.3-0.6,0.5-1,0.5
			c-0.2,0-0.4,0-0.7-0.1c-0.2-0.1-0.4-0.2-0.5-0.4c0.2,0.9,0.5,1.6,1,2.1c0.5,0.5,1.1,0.7,2,0.7c0.8,0,1.4-0.2,2-0.6
			c0.6-0.4,0.8-1.1,0.8-2.2c0-0.7,0-1.3-0.1-1.9c-0.1-0.6-0.2-1.2-0.4-1.9c-0.2-0.7-0.4-1.6-0.7-2.5c-0.3-1-0.6-2.2-1-3.7
			c-0.3,1.3-0.6,2.5-1,3.7c-0.4,1.2-0.8,2.4-1.2,3.6c0.3,0.1,0.5,0.3,0.8,0.6C151.5,197.3,151.6,197.6,151.6,198z"/>
		<path class="st5" d="M188.2,177.1v21.3c0,1.1,0.2,1.8,0.5,2.2c0.3,0.4,0.8,0.5,1.6,0.5c0.3,0,0.6-0.1,0.8-0.2
			c-0.2,1.5-0.6,2.5-1,3.1c-0.4,0.6-1.2,0.9-2.3,0.9c-1.3,0-2.3-0.3-3-1c-0.7-0.7-1.2-1.5-1.4-2.6c-0.2,0.4-0.5,0.9-0.7,1.3
			c-0.3,0.4-0.6,0.8-1,1.2c-0.4,0.3-0.9,0.6-1.4,0.8c-0.5,0.2-1.2,0.3-1.9,0.3c-0.8,0-1.7-0.2-2.5-0.5c-0.8-0.3-1.6-0.8-2.2-1.5
			c-0.7-0.7-1.2-1.7-1.6-2.8c-0.4-1.2-0.6-2.6-0.6-4.3c0-1.2,0.1-2.5,0.4-3.7c0.3-1.3,0.7-2.5,1.3-3.6c0.6-1.1,1.4-2,2.3-2.7
			c1-0.7,2.1-1,3.5-1c0.3,0,0.7,0,1,0.1c0.4,0,0.7,0.1,1.1,0.3c0.3,0.1,0.7,0.4,0.9,0.6c0.3,0.3,0.5,0.7,0.7,1.1v-9L188.2,177.1z
			 M180.6,187.3c-0.6,0-1.2,0.3-1.6,0.8c-0.5,0.5-0.8,1.2-1.1,2c-0.3,0.8-0.5,1.7-0.6,2.6c-0.1,1-0.2,1.9-0.2,2.7
			c0,1.4,0.1,2.5,0.3,3.3c0.2,0.8,0.5,1.3,0.8,1.7c0.3,0.4,0.6,0.6,1,0.6c0.3,0.1,0.6,0.1,0.9,0.1c0.3,0,0.6-0.1,0.9-0.2
			c0.3-0.1,0.6-0.4,0.8-0.7c0.3-0.3,0.5-0.6,0.6-1.1c0.2-0.4,0.2-0.9,0.2-1.5v-9c-0.1-0.1-0.1-0.2-0.2-0.4c-0.1-0.2-0.2-0.3-0.4-0.5
			c-0.2-0.2-0.3-0.3-0.6-0.4C181.1,187.3,180.9,187.3,180.6,187.3z"/>
		<path class="st5" d="M192.8,178c0-0.8,0.3-1.4,0.8-2c0.6-0.5,1.2-0.8,2.1-0.8c0.8,0,1.4,0.2,1.9,0.7c0.4,0.5,0.7,1.1,0.7,1.9
			c0,1-0.4,2.1-1.3,3.4c-0.8,1.2-2,2.3-3.5,3.3c-0.2-0.1-0.4-0.3-0.4-0.6l1.9-2.8c0-0.2-0.2-0.5-0.5-0.7c-0.5-0.3-0.9-0.6-1.2-1
			C193,179,192.8,178.5,192.8,178z"/>
		<path class="st5" d="M211.2,192.8c0-1.6-0.2-2.7-0.5-3.4c-0.3-0.7-0.8-1-1.5-1c-0.4,0-0.7,0.1-1,0.3c-0.3,0.2-0.5,0.5-0.7,0.8
			c-0.2,0.3-0.3,0.7-0.4,1.2c-0.1,0.4-0.2,0.9-0.2,1.3v12.7h-5.7v-26.8l5.7-0.8v9.9c0.6-0.9,1.3-1.5,2.1-1.8s1.5-0.4,2.2-0.4
			c0.7,0,1.4,0.1,2.1,0.4c0.7,0.2,1.3,0.6,1.8,1.2c0.5,0.6,0.9,1.3,1.2,2.2c0.3,0.9,0.4,2.1,0.4,3.5c0,0.3,0,0.8,0,1.3
			c0,0.5,0,1-0.1,1.6c0,0.5,0,1-0.1,1.5c0,0.5,0,0.9,0,1.3c0,1.1,0.1,2,0.4,2.5c0.3,0.6,0.8,0.8,1.6,0.8c0.4,0,0.8-0.1,1.1-0.3
			c0.3-0.2,0.5-0.4,0.7-0.7c0.2-0.3,0.3-0.7,0.5-1.1c0.1-0.4,0.2-0.9,0.3-1.4h1.7c-0.2,1.6-0.5,2.8-0.9,3.8c-0.4,1-0.9,1.7-1.4,2.2
			c-0.5,0.5-1.1,0.9-1.7,1c-0.6,0.2-1.2,0.3-1.8,0.3c-2,0-3.5-0.7-4.4-2c-0.9-1.3-1.4-3.1-1.4-5.4c0-0.2,0-0.6,0-1
			c0-0.4,0-0.9,0-1.4c0-0.5,0-0.9,0-1.4C211.2,193.4,211.2,193.1,211.2,192.8z"/>
		<path class="st5" d="M246,183.6v3c0.4-0.5,1-0.9,1.7-1.2c0.7-0.3,1.5-0.5,2.5-0.5c0.9,0,1.7,0.2,2.5,0.5c0.8,0.3,1.5,0.9,2.1,1.7
			c0.6,0.8,1.1,1.8,1.5,3.1c0.4,1.3,0.5,2.9,0.5,4.8c0,1.1-0.1,2.3-0.3,3.5c-0.2,1.2-0.6,2.3-1.2,3.3c-0.6,1-1.3,1.8-2.2,2.4
			c-0.9,0.6-2.1,0.9-3.5,0.9c-1.3,0-2.6,0-3.7-0.1v8.3l-5.7,1.4v-9.9c-0.6,0-1.3,0.1-1.9,0.1c-0.6,0.1-1.2,0.2-1.9,0.3v2.8
			c0,1.4-0.2,2.6-0.5,3.4c-0.3,0.9-0.8,1.5-1.3,2c-0.6,0.5-1.2,0.8-1.8,1c-0.7,0.2-1.3,0.3-2,0.3c-0.7,0-1.3-0.1-2-0.3
			c-0.6-0.2-1.2-0.5-1.7-0.9c-0.5-0.4-0.9-0.9-1.2-1.4c-0.3-0.6-0.4-1.2-0.4-2c0-0.7,0.2-1.3,0.5-1.9c0.3-0.6,0.7-1,1.2-1.5
			c0.5-0.4,1.1-0.8,1.7-1.1c0.6-0.3,1.3-0.6,1.9-0.8v-1.9c-0.6,0.9-1.3,1.5-2.1,1.8c-0.8,0.3-1.5,0.4-2.2,0.4
			c-0.7,0-1.4-0.1-2.1-0.4c-0.7-0.3-1.2-0.7-1.7-1.3c-0.5-0.6-0.9-1.3-1.2-2.3c-0.3-0.9-0.5-2-0.5-3.3V185h5.7v13.4
			c0,0.2,0,0.5,0,0.8c0,0.3,0.1,0.6,0.2,0.9c0.1,0.3,0.3,0.5,0.5,0.7c0.2,0.2,0.5,0.3,0.9,0.3c0.8,0,1.3-0.3,1.7-1
			c0.4-0.7,0.6-1.5,0.7-2.5V185h5.7v18.1c0.6-0.2,1.2-0.3,1.9-0.4c0.6-0.1,1.3-0.2,1.9-0.3v-18.8H246z M227.7,209.9
			c0,0.4,0.2,0.8,0.5,1.1c0.3,0.4,0.7,0.5,1.2,0.5c0.4,0,0.8-0.3,1.1-0.9c0.3-0.6,0.5-1.5,0.5-2.6v-1.1c-0.8,0.3-1.6,0.8-2.2,1.2
			C228,208.6,227.7,209.2,227.7,209.9z M247.7,201.8c0.7,0,1.3-0.2,1.8-0.7c0.5-0.5,0.8-1.1,1.1-1.8c0.3-0.7,0.5-1.5,0.6-2.4
			c0.1-0.9,0.2-1.7,0.2-2.5c0-1.6-0.1-2.8-0.4-3.7c-0.2-0.9-0.5-1.6-0.8-2c-0.3-0.4-0.7-0.7-1-0.8c-0.4-0.1-0.7-0.2-0.9-0.2
			c-0.4,0-0.9,0.2-1.3,0.5c-0.4,0.3-0.8,0.8-1,1.5v12.2c0.3,0,0.6,0,0.9,0S247.4,201.8,247.7,201.8z"/>
		<path class="st5" d="M268.8,192.8c0-1.6-0.2-2.7-0.5-3.4c-0.4-0.7-0.9-1-1.5-1c-0.4,0-0.7,0.1-1,0.3s-0.5,0.5-0.7,0.8
			c-0.2,0.3-0.3,0.7-0.4,1.2c-0.1,0.4-0.2,0.9-0.2,1.3v12.7h-5.7V185h5.7l0,2.1c0.6-0.9,1.3-1.5,2-1.8c0.8-0.3,1.5-0.4,2.2-0.4
			c0.7,0,1.5,0.1,2.1,0.4c0.7,0.2,1.3,0.6,1.8,1.2c0.5,0.6,0.9,1.3,1.2,2.2c0.3,0.9,0.4,2.1,0.4,3.5c0,0.3,0,0.8,0,1.3
			c0,0.5,0,1-0.1,1.6c0,0.5,0,1-0.1,1.5c0,0.5,0,0.9,0,1.3c0,1.1,0.1,2,0.4,2.5c0.2,0.6,0.8,0.8,1.6,0.8c0.9,0,1.5-0.3,1.9-1
			c0.4-0.7,0.6-1.5,0.8-2.5h1.7c-0.2,1.6-0.5,2.8-0.9,3.8c-0.4,1-0.9,1.7-1.4,2.2c-0.5,0.5-1.1,0.9-1.7,1c-0.6,0.2-1.2,0.3-1.8,0.3
			c-2,0-3.5-0.7-4.4-2c-0.9-1.3-1.4-3.1-1.4-5.4c0-0.2,0-0.6,0-1c0-0.4,0-0.9,0-1.4c0-0.5,0-0.9,0-1.4
			C268.8,193.4,268.8,193.1,268.8,192.8z"/>
		<path class="st5" d="M286.4,184.8c1.6,0,3,0.4,4,1.2c1,0.8,1.8,2.1,2.2,3.8c0.2-0.1,0.5-0.3,0.7-0.5c0.2-0.2,0.4-0.5,0.5-0.7
			c0.1-0.2,0.3-0.5,0.4-0.7c0.1-0.2,0.2-0.4,0.2-0.6h1.3c-0.1,0.4-0.2,0.8-0.4,1.3c-0.1,0.5-0.3,0.9-0.5,1.4
			c-0.2,0.5-0.4,0.9-0.7,1.3c-0.3,0.4-0.6,0.8-1.1,1.1c0,0.3,0,0.5,0.1,0.8s0,0.6,0,0.8c0,1.5-0.1,3-0.4,4.3s-0.7,2.5-1.3,3.5
			c-0.6,1-1.4,1.8-2.4,2.3c-1,0.6-2.2,0.8-3.6,0.8c-1,0-1.9-0.2-2.8-0.5c-0.9-0.3-1.7-0.8-2.3-1.5c-0.7-0.7-1.2-1.6-1.6-2.8
			c-0.4-1.1-0.6-2.5-0.6-4.2c0-1.1,0.1-2.3,0.4-3.6c0.2-1.3,0.7-2.5,1.3-3.7c0.6-1.1,1.5-2.1,2.6-2.8
			C283.3,185.2,284.7,184.8,286.4,184.8z M286.5,201.3c0.6,0,1-0.2,1.4-0.6c0.4-0.4,0.7-0.9,1-1.6s0.5-1.5,0.6-2.4
			c0.1-0.9,0.2-1.9,0.2-3v-0.6c-1.1-0.2-1.6-1-1.6-2.3c0-0.8,0.3-1.4,1-1.7c-0.3-0.8-0.6-1.4-1-1.6c-0.4-0.2-0.8-0.4-1-0.4
			c-0.6,0-1.1,0.3-1.5,0.8c-0.4,0.5-0.7,1.2-1,2.1c-0.3,0.8-0.5,1.7-0.6,2.7c-0.1,1-0.2,2-0.2,2.9c0,1.2,0.1,2.1,0.3,2.9
			s0.4,1.3,0.7,1.7c0.3,0.4,0.6,0.7,0.9,0.8C285.9,201.2,286.2,201.3,286.5,201.3z"/>
	</g>
</g>
<g id="text">
</g>
</svg>
