<svg xmlns="http://www.w3.org/2000/svg" xmlns:xlink="http://www.w3.org/1999/xlink" width="100" height="80" viewBox="0 0 400 326"><defs><clipPath id="a"><rect width="287.706" height="133.268"/></clipPath><clipPath id="b"><path d="M0,0,55.865-.826,53.983,125.25l-55.865.826Z" transform="matrix(0.594, -0.804, 0.804, 0.594, 0, 45.423)"/></clipPath></defs><g transform="translate(-14.547 -11.007)"><rect width="400" height="323" transform="translate(14.547 14.007)" fill="#fff"/><g transform="translate(74.698 91.492)"><g clip-path="url(#a)"><path d="M347.342,123.552V113.058a16.288,16.288,0,0,0-15.892-16.512c-1.43-.1-5.866-.05-25.4.268-41.6.687-119.064,1.961-139.246-.738-7.41-.989-15.259-7.141-24.342-14.249-13.65-10.695-29.12-22.8-49.741-22.8-19.662,0-32.467,20.971-33.052,40.4-.471,15.59,7.118,34.247,29.819,36.594,2.551,4.342,5.509,8.9,8.9,13.628,3.575,14.1,4.778,39.209,4.794,39.461a3.285,3.285,0,0,0,3.25,3.185h9.506a3.283,3.283,0,0,0,3.234-3.068l3.023-37.684H325.047l2.974,37.131a3.3,3.3,0,0,0,3.234,3.084h12.691a3.312,3.312,0,0,0,3.25-3.353V149.166a3.424,3.424,0,0,0,.163-1.006V123.552ZM103.007,144.807A136.413,136.413,0,0,1,89.649,122.16c-6.4-14.383-6.207-24.893.536-29.587,6.37-4.425,16.624-2.38,20.865,2.28,14.17,15.506,30.989,32.068,51.269,32.068H340.842v17.9H103.007ZM66.152,99.614C66.639,83.3,76.942,65.7,92.7,65.7c18.444,0,32.971,11.382,45.809,21.44,9.409,7.376,18.314,14.349,27.446,15.573,20.654,2.766,98.41,1.492,140.189.8,12.5-.2,23.319-.386,24.749-.3a3.586,3.586,0,0,0,.422.034,9.672,9.672,0,0,1,9.506,9.806V120.2H162.319c-17.7,0-32.679-14.8-46.524-29.956-6.207-6.806-20.02-9.639-29.234-3.235-5.622,3.906-13.455,14.031-2.811,37.952.52,1.157,1.073,2.33,1.674,3.52-14.609-3.738-19.646-16.83-19.272-28.866m46.767,85.962h-3.445c-.406-6.672-1.56-22.345-4-34.063h10.173Zm221.309-.57-2.681-33.493h9.116v33.493Z" transform="translate(-59.635 -59.013)" fill="#222e6a"/></g></g><g transform="translate(81.782 11.007)"><g clip-path="url(#b)"><g clip-path="url(#b)"><path d="M92.074,61.869a1.2,1.2,0,0,0,1.365.067l3.526-2.162-.959,4.107a1.286,1.286,0,0,0,.471,1.324l19.581,14.919c9.133,6.957,19.24,6.135,24.781-1.609,7.41-10.343,2.34-19.11-4.42-24.273-3.884-2.967-7.93-4.073-11.944-3.386a14.3,14.3,0,0,0-9.262,5.968c-4.664,6.923-3.152,13.394,4.5,19.227,7.475,5.7,14.008,2.414,16.591-1.19a10.265,10.265,0,0,0,1.9-7.778,11.1,11.1,0,0,0-4.729-7.242c-5.7-3.956-10.351-3.5-13.829,1.341a7.011,7.011,0,0,0-1.17,5.767c.634,2.665,2.779,5.029,6.029,6.655,2.909,1.458,6.419.587,7.8-1.928,1.056-1.928.829-4.912-3.023-7.543a1.215,1.215,0,0,0-1.722.369,1.317,1.317,0,0,0,.357,1.777c2.048,1.391,2.893,2.95,2.226,4.124-.666,1.207-2.649,1.844-4.566.888-2.567-1.291-4.241-3.051-4.7-4.962a4.339,4.339,0,0,1,.747-3.638c2.649-3.688,5.866-3.923,10.432-.738a8.612,8.612,0,0,1,3.656,5.549,7.651,7.651,0,0,1-1.446,5.817c-1.982,2.766-7.117,5.23-13.114.654-6.532-4.979-7.784-9.974-3.932-15.69a11.931,11.931,0,0,1,7.621-4.912c3.38-.57,6.679.335,10.059,2.917,7.491,5.716,9.262,13.193,3.884,20.686-4.729,6.6-13.276,7.208-21.3,1.073L98.574,63.629l1.462-6.236a1.286,1.286,0,0,0-.471-1.324A1.2,1.2,0,0,0,98.2,56L95.665,57.56l5.281-11.4a1.3,1.3,0,0,0-.374-1.576,1.164,1.164,0,0,0-1.576.05l-11.6,10.477L83.835,52.4l1.251-6.471a1.275,1.275,0,0,0-.488-1.274,1.208,1.208,0,0,0-1.333-.1l-3.445,1.911,3.526-9.957a1.305,1.305,0,0,0-.423-1.475,1.213,1.213,0,0,0-1.495.017L71.387,42.909,66.252,39a1.219,1.219,0,0,0-1.739.268,1.31,1.31,0,0,0,.26,1.794l5.883,4.476a1.213,1.213,0,0,0,1.495-.017l7.426-5.8-3.2,9.019a1.306,1.306,0,0,0,.357,1.408,1.173,1.173,0,0,0,1.4.151l4-2.23-.877,4.593a1.275,1.275,0,0,0,.488,1.274l4.989,3.805a1.218,1.218,0,0,0,1.56-.067l7.8-7.041-4.436,9.572a1.281,1.281,0,0,0,.276,1.492.81.81,0,0,0,.146.168" transform="translate(-63.83 5.073)" fill="#2293d1"/></g><g clip-path="url(#b)"><path d="M90.344,65.88a1.243,1.243,0,0,0,.65.251,1.265,1.265,0,0,0,1.333-1.19c.016-.151,1.17-14.383,13.569-22.412,7.832-5.079,16.721-2.565,20.28-.184l.406.268c5.281,3.487,9.458,6.722,16.8,4.526,1.528-.453,2.779-.352,3.153.536.341.8-.634,2.23-1.983,4.409a1.343,1.343,0,0,0-.13,1.09,2.029,2.029,0,0,0,.975.989,4.765,4.765,0,0,1,2.112,1.492,19.716,19.716,0,0,0-2.649,5.968,1.27,1.27,0,0,0,.813,1.056c.439.168,2.21-1.727,2.551-2.062a4.8,4.8,0,0,1,1.755-1.123,4.147,4.147,0,0,1,.244,1.224c.114,1.207.325,3.235,3.006,3.956l.536.134c1.625.4,4.063,1.023,4.712,2.9.666,1.894-.488,5-3.331,8.968-.52.721-1.2,1.593-1.934,2.5-3.25,4.073-7.312,9.153-5.883,13.36,1.95,5.783,6.793,11.349,7,11.583a1.212,1.212,0,0,0,1.755.1,1.321,1.321,0,0,0,.1-1.81c-.049-.05-4.712-5.431-6.5-10.712-.959-2.85,2.746-7.51,5.46-10.9.748-.939,1.462-1.827,2.015-2.615,3.461-4.828,4.664-8.549,3.672-11.365-1.1-3.151-4.6-4.04-6.467-4.509l-.5-.134c-1.008-.268-1.04-.62-1.154-1.743a5.763,5.763,0,0,0-.617-2.364,2.282,2.282,0,0,0-1.625-1.157,2.387,2.387,0,0,0-.845.017,2.513,2.513,0,0,0,.293-2.012c-.309-1.123-1.706-2.028-2.633-2.582.991-1.861,2.795-4.291,1.316-6.588-1.3-2.045-3.477-1.995-5.7-1.358-6.256,1.81-9.913-.62-14.95-3.956l-.406-.268a21.323,21.323,0,0,0-22.929.168c-13.5,8.734-14.69,23.77-14.739,24.407a1.262,1.262,0,0,0,.471,1.14" transform="translate(-47.833 6.509)" fill="#232e6a"/></g></g></g><text transform="translate(35.547 301.171)" fill="#222e6a" font-size="48" font-family="LobsterTwo-Bold, Lobster Two" font-weight="700"><tspan x="0" y="0">Murmures d’hypno</tspan></text><line x2="287.625" transform="translate(78.533 249.033)" fill="none" stroke="#3fa9f5" stroke-miterlimit="10" stroke-width="2"/></g></svg>